<svg id="Capa_1" data-name="Capa 1" xmlns="http://www.w3.org/2000/svg" viewBox="0 0 3000 3000"><defs><style>.cls-1{fill:#ff0a54;}.cls-2{fill:#fff;}.cls-3{isolation:isolate;}</style></defs><path class="cls-1" d="M1613.45,2732.83c-180,0-354.7-35.3-519-104.8a1337,1337,0,0,1-709.7-709.7c-69.5-164.4-104.8-339-104.8-519s35.3-354.7,104.8-519a1337,1337,0,0,1,709.7-709.7c164.4-69.5,339-104.8,519-104.8s354.7,35.3,519,104.8a1337,1337,0,0,1,709.7,709.7c69.5,164.4,104.8,339,104.8,519s-35.3,354.7-104.8,519a1337,1337,0,0,1-709.7,709.7C1968.15,2697.53,1793.45,2732.83,1613.45,2732.83Z"/><path class="cls-2" d="M1613.45,97.33a1308.9,1308.9,0,0,1,262.5,26.5,1293.73,1293.73,0,0,1,465.4,195.8,1305.58,1305.58,0,0,1,471.7,572.8,1294.57,1294.57,0,0,1,75.8,244.3,1313.37,1313.37,0,0,1,0,525,1293.73,1293.73,0,0,1-195.8,465.4,1305.58,1305.58,0,0,1-572.8,471.7,1294.57,1294.57,0,0,1-244.3,75.8,1313.37,1313.37,0,0,1-525,0,1293.73,1293.73,0,0,1-465.4-195.8A1305.58,1305.58,0,0,1,413.85,1906a1294.57,1294.57,0,0,1-75.8-244.3,1313.37,1313.37,0,0,1,0-525,1293.73,1293.73,0,0,1,195.8-465.4,1305.58,1305.58,0,0,1,572.8-471.7,1294.57,1294.57,0,0,1,244.3-75.8,1308.9,1308.9,0,0,1,262.5-26.5m0-63c-753.9,0-1365,611.1-1365,1365s611.1,1365,1365,1365,1365-611.1,1365-1365-611.1-1365-1365-1365Z"/><g class="cls-3"><path class="cls-2" d="M1117.32,1629.12q0-56.92-31.41-96t-108-72.25Q865.52,1420.06,814,1354.45T762.54,1187.8q0-102.94,49.92-167.9T948.4,941.12V803h88.54V941.75q87.9,15.71,135.94,89.48t48,201.25H1111q0-87.09-32-139.72t-87.91-52.64q-55.89,0-87,38.19T873.05,1186q0,63.22,33.6,101.09t109.58,69.78q113.64,42.73,162.93,106.49t49.3,164.9q0,103-52.75,168.38t-151.33,78.51v120.57H937.1V1875.12q-99.24-14.43-152-86.64T732.4,1595.7H842.91q0,86.79,35.16,133.61t99.22,46.81q65.3,0,102.65-39.09T1117.32,1629.12Z"/><path class="cls-2" d="M1702,1865.12H1590.17V1090.26L1398,1176.12v-105l286.35-125H1702Z"/><path class="cls-2" d="M2494.51,1475.36q0,202.34-59,302.54t-185.23,100.22q-122.48,0-182.74-96.12t-62.78-289V1335.86q0-200.44,59.33-299.08T2249,938.12q123.67,0,183,93.63t62.48,283.37ZM2383.37,1316q0-145.21-32-214.06T2249,1033.12q-68.48,0-100.49,67.58t-33.26,204v188.61q0,144.62,33.26,217.2t101.74,72.61q67.8,0,99.82-68.51t33.3-209.36Z"/></g></svg>