<svg id="Capa_1" data-name="Capa 1" xmlns="http://www.w3.org/2000/svg" viewBox="0 0 3000 3000"><defs><style>.cls-1{isolation:isolate;}.cls-2{fill:#fff;}.cls-3{fill:#ff0a54;}</style></defs><g class="cls-1"><path class="cls-2" d="M1025,1553.58q0-56.92-31.4-96t-108-72.25q-112.41-40.79-163.89-106.39t-51.49-166.66q0-102.93,49.92-167.89t135.94-78.78V727.44h88.55V866.2q87.89,15.7,135.94,89.49t48,201.25H1018.73q0-87.09-32-139.72t-87.91-52.64q-55.89,0-87,38.19t-31.08,107.65q0,63.24,33.59,101.1t109.58,69.78q113.66,42.72,162.94,106.48t49.29,164.91q0,103-52.75,168.37t-151.32,78.52v120.56H844.79V1799.58q-99.22-14.44-152-86.64t-52.74-192.78H750.61q0,86.79,35.15,133.61T885,1700.58q65.29,0,102.66-39.1T1025,1553.58Z"/><path class="cls-2" d="M1609.65,1789.58H1497.87V1014.72l-192.14,85.86v-105l286.34-125h17.58Z"/><path class="cls-2" d="M2402.21,1399.81q0,202.34-59,302.55t-185.23,100.22q-122.46,0-182.73-96.13t-62.79-289v-157.1q0-200.43,59.33-299.08t184.94-98.65q123.67,0,183,93.62t62.49,283.38Zm-111.15-159.33q0-145.21-32-214.06t-102.34-68.84q-68.46,0-100.48,67.58t-33.27,204v188.61q0,144.6,33.27,217.2t101.73,72.61q67.8,0,99.83-68.52t33.29-209.36Z"/></g><path class="cls-3" d="M1556,2733.5c-180,0-354.7-35.3-519-104.8A1337,1337,0,0,1,327.3,1919c-69.5-164.4-104.8-339-104.8-519s35.3-354.7,104.8-519A1337,1337,0,0,1,1037,171.3c164.4-69.5,339-104.8,519-104.8s354.7,35.3,519,104.8A1337,1337,0,0,1,2784.7,881c69.5,164.4,104.8,339,104.8,519s-35.3,354.7-104.8,519A1337,1337,0,0,1,2075,2628.7C1910.7,2698.2,1736,2733.5,1556,2733.5Z"/><path class="cls-2" d="M1556,98a1308.9,1308.9,0,0,1,262.5,26.5,1293.73,1293.73,0,0,1,465.4,195.8,1305.58,1305.58,0,0,1,471.7,572.8,1294.57,1294.57,0,0,1,75.8,244.3,1313.37,1313.37,0,0,1,0,525,1293.73,1293.73,0,0,1-195.8,465.4,1305.58,1305.58,0,0,1-572.8,471.7,1294.57,1294.57,0,0,1-244.3,75.8,1313.37,1313.37,0,0,1-525,0,1293.73,1293.73,0,0,1-465.4-195.8,1305.58,1305.58,0,0,1-471.7-572.8,1294.57,1294.57,0,0,1-75.8-244.3,1313.37,1313.37,0,0,1,0-525A1293.73,1293.73,0,0,1,476.4,672a1305.58,1305.58,0,0,1,572.8-471.7,1294.57,1294.57,0,0,1,244.3-75.8A1308.9,1308.9,0,0,1,1556,98m0-63C802.1,35,191,646.1,191,1400S802.1,2765,1556,2765s1365-611.1,1365-1365S2309.9,35,1556,35Z"/><g class="cls-1"><path class="cls-2" d="M1025,1553.58q0-56.94-31.4-96t-108-72.25q-112.41-40.79-163.89-106.39t-51.49-166.66q0-102.95,49.92-167.89t135.94-78.78V727.44h88.55V866.2q87.89,15.7,135.94,89.49t48,201.25H1018.73q0-87.11-32-139.72t-87.91-52.64q-55.89,0-87,38.19t-31.08,107.65q0,63.24,33.59,101.1t109.58,69.78q113.66,42.72,162.94,106.48t49.29,164.91q0,103-52.75,168.37t-151.32,78.52v120.56H844.79V1799.58q-99.22-14.44-152-86.64t-52.74-192.78H750.61q0,86.79,35.15,133.61T885,1700.58q65.29,0,102.66-39.1T1025,1553.58Z"/><path class="cls-2" d="M1609.65,1789.58H1497.87V1014.72l-192.14,85.86v-105l286.34-125h17.58Z"/><path class="cls-2" d="M1958.88,1331.36l39.56-455.78h397.48v107H2092l-21.34,249.47q56.51-39.48,121.81-39.47,106.74,0,167.66,82.92t60.9,223q0,142-66.25,223t-181.78,81q-103,0-167.65-67.19t-74.1-185.87h104.24q9.42,78.42,44.89,118.23t92.62,39.83q64.7,0,101.1-56.24t36.42-151.78q0-89.85-39.25-146.42t-105.8-56.56q-55.26,0-88.53,29l-29.52,29.64Z"/></g></svg>