<svg id="Capa_1" data-name="Capa 1" xmlns="http://www.w3.org/2000/svg" viewBox="0 0 3000 3000"><defs><style>.cls-1{fill:#ff0a54;}.cls-2{fill:#fff;}.cls-3{isolation:isolate;}</style></defs><path class="cls-1" d="M1555.85,2856.67c-180,0-354.7-35.3-519-104.8a1337,1337,0,0,1-709.7-709.7c-69.5-164.4-104.8-339-104.8-519s35.3-354.7,104.8-519a1337,1337,0,0,1,709.7-709.7c164.4-69.5,339-104.8,519-104.8s354.7,35.3,519,104.8a1337,1337,0,0,1,709.7,709.7c69.5,164.4,104.8,339,104.8,519s-35.3,354.7-104.8,519a1337,1337,0,0,1-709.7,709.7C1910.55,2821.37,1735.85,2856.67,1555.85,2856.67Z"/><path class="cls-2" d="M1555.85,221.17a1308.9,1308.9,0,0,1,262.5,26.5,1293.73,1293.73,0,0,1,465.4,195.8,1305.58,1305.58,0,0,1,471.7,572.8,1294.57,1294.57,0,0,1,75.8,244.3,1313.37,1313.37,0,0,1,0,525,1293.73,1293.73,0,0,1-195.8,465.4,1305.58,1305.58,0,0,1-572.8,471.7,1294.57,1294.57,0,0,1-244.3,75.8,1313.37,1313.37,0,0,1-525,0A1293.73,1293.73,0,0,1,828,2602.67a1305.58,1305.58,0,0,1-471.7-572.8,1294.57,1294.57,0,0,1-75.8-244.3,1313.37,1313.37,0,0,1,0-525,1293.73,1293.73,0,0,1,195.8-465.4,1305.58,1305.58,0,0,1,572.8-471.7,1294.57,1294.57,0,0,1,244.3-75.8,1308.9,1308.9,0,0,1,262.5-26.5m0-63c-753.9,0-1365,611.1-1365,1365s611.1,1365,1365,1365,1365-611.1,1365-1365-611.1-1365-1365-1365Z"/><g id="veinte" class="cls-3"><path class="cls-2" d="M1059.72,1753q0-56.93-31.41-96t-108-72.25q-112.39-40.79-163.89-106.39t-51.48-166.65q0-102.95,49.92-167.9T890.8,1065V926.82h88.54v138.77q87.9,15.71,135.94,89.48t48,201.25H1053.44q0-87.09-32-139.72T933.5,1164q-55.89,0-87,38.19t-31.08,107.66q0,63.23,33.6,101.09t109.58,69.78q113.64,42.73,162.93,106.49t49.3,164.9q0,103-52.75,168.38T966.78,1999v120.57H879.5V1999q-99.24-14.43-152-86.64T674.8,1719.54H785.31q0,86.79,35.16,133.61T919.69,1900q65.29,0,102.65-39.09T1059.72,1753Z"/><path class="cls-2" d="M1824.57,1989H1313.43v-83.7L1574,1559.9q59-79.83,81.93-131.06a262.58,262.58,0,0,0,22.93-108.44q0-72.92-33.91-118.17T1555.81,1157q-69.7,0-107.69,48.16t-38,138.78H1299q0-126.21,69.07-204.08T1555.81,1062q109.26,0,172,66.88t62.8,178q0,135.66-141.28,320.88L1445.93,1894h378.64Z"/><path class="cls-2" d="M2436.91,1599.2q0,202.33-59,302.54T2192.65,2002q-122.47,0-182.74-96.12t-62.78-289V1459.7q0-200.45,59.33-299.08T2191.4,1062q123.67,0,183,93.63T2436.91,1439Zm-111.14-159.33q0-145.21-32-214.06T2191.4,1157q-68.47,0-100.49,67.58t-33.26,204v188.61q0,144.61,33.26,217.2T2192.65,1907q67.8,0,99.82-68.51t33.3-209.36Z"/></g></svg>