<svg id="Capa_1" data-name="Capa 1" xmlns="http://www.w3.org/2000/svg" viewBox="0 0 3000 3000"><defs><style>.cls-1{fill:#ff0a54;}.cls-2{fill:#fff;}.cls-3{isolation:isolate;}</style></defs><path class="cls-1" d="M1556,2733.5c-180,0-354.7-35.3-519-104.8A1337,1337,0,0,1,327.3,1919c-69.5-164.4-104.8-339-104.8-519s35.3-354.7,104.8-519A1337,1337,0,0,1,1037,171.3c164.4-69.5,339-104.8,519-104.8s354.7,35.3,519,104.8A1337,1337,0,0,1,2784.7,881c69.5,164.4,104.8,339,104.8,519s-35.3,354.7-104.8,519A1337,1337,0,0,1,2075,2628.7C1910.7,2698.2,1736,2733.5,1556,2733.5Z"/><path class="cls-2" d="M1556,98a1308.9,1308.9,0,0,1,262.5,26.5,1293.73,1293.73,0,0,1,465.4,195.8,1305.58,1305.58,0,0,1,471.7,572.8,1294.57,1294.57,0,0,1,75.8,244.3,1313.37,1313.37,0,0,1,0,525,1293.73,1293.73,0,0,1-195.8,465.4,1305.58,1305.58,0,0,1-572.8,471.7,1294.57,1294.57,0,0,1-244.3,75.8,1313.37,1313.37,0,0,1-525,0,1293.73,1293.73,0,0,1-465.4-195.8,1305.58,1305.58,0,0,1-471.7-572.8,1294.57,1294.57,0,0,1-75.8-244.3,1313.37,1313.37,0,0,1,0-525A1293.73,1293.73,0,0,1,476.4,672a1305.58,1305.58,0,0,1,572.8-471.7,1294.57,1294.57,0,0,1,244.3-75.8A1308.9,1308.9,0,0,1,1556,98m0-63C802.1,35,191,646.1,191,1400S802.1,2765,1556,2765s1365-611.1,1365-1365S2309.9,35,1556,35Z"/><g id="treinta" class="cls-3"><path class="cls-2" d="M1025,1553.58q0-56.92-31.4-96t-108-72.25q-112.41-40.79-163.89-106.39t-51.49-166.66q0-102.93,49.92-167.89t135.94-78.78V727.44h88.55V866.2q87.89,15.7,135.94,89.49t48,201.25H1018.73q0-87.09-32-139.72t-87.91-52.64q-55.89,0-87,38.19t-31.08,107.65q0,63.24,33.59,101.1t109.58,69.78q113.66,42.72,162.94,106.48t49.29,164.91q0,103-52.75,168.37t-151.32,78.52v120.56H844.79V1799.58q-99.22-14.44-152-86.64t-52.74-192.78H750.61q0,86.79,35.15,133.61T885,1700.58q65.29,0,102.66-39.1T1025,1553.58Z"/><path class="cls-2" d="M1420.71,1275.58h71q68.43,0,105.48-42.11t37-115q0-160.87-124.33-160.89-59.67,0-93.56,43.33t-33.91,113.65H1271.9q0-109.87,66.87-180.93t171.11-71q108,0,171.42,67.5t63.43,191.15q0,63.43-33,118.35t-85.71,80.67q129.33,47.82,129.35,214.44,0,122.63-68.13,195.26t-178,72.63q-108.66,0-175.52-68.85t-66.87-185H1378q0,72.84,35.16,115.86t96.08,43q62.16,0,98.89-42.13t36.73-128.26q0-166.59-157.61-166.61h-66.56Z"/><path class="cls-2" d="M2402.21,1399.81q0,202.34-59,302.55t-185.23,100.22q-122.46,0-182.73-96.13t-62.79-289v-157.1q0-200.43,59.33-299.08t184.94-98.65q123.67,0,183,93.62t62.49,283.38Zm-111.15-159.33q0-145.21-32-214.06t-102.34-68.84q-68.46,0-100.48,67.58t-33.27,204v188.61q0,144.6,33.27,217.2t101.73,72.61q67.8,0,99.83-68.52t33.29-209.36Z"/></g></svg>