<?xml version="1.0" encoding="utf-8"?>
<!-- Generator: Adobe Illustrator 24.1.1, SVG Export Plug-In . SVG Version: 6.00 Build 0)  -->
<svg version="1.1" id="Capa_1" xmlns="http://www.w3.org/2000/svg" xmlns:xlink="http://www.w3.org/1999/xlink" x="0px" y="0px"
	 viewBox="0 0 1080 1024" style="enable-background:new 0 0 1080 1024;" xml:space="preserve">
<style type="text/css">
	.st0{fill-rule:evenodd;clip-rule:evenodd;fill:#F9ADB0;}
	.st1{fill:#FFFFFF;}
	.st2{fill:#FF00FF;}
</style>
<g>
	<g>
		<path class="st0" d="M479.8,283.2c-2.9-15.7-5.8-30.4-8.4-45.1c-2.4-13.8-4.7-27.6-6.6-41.5c-1.9-13.2-0.3-26.4,3.8-38.8
			c4.4-13.5,13-24.7,24.5-33.5c7.8-5.9,15.6-11.5,25.5-13c13.3-2,26.4-0.8,37.6,7.2c11.8,8.4,23,17.6,32.5,28.7
			c14.9,17.5,30.4,34.4,45.7,51.6c0.9,1,2,1.9,2.8,2.6c9.5-3.5,18.8-6.9,28.1-10.3c14.3-5.2,28.9-9.5,43.8-12.5
			c11.7-2.3,23.3-5.6,35.1-7.2c15.7-2.1,31.6-4.1,47.4-0.9c11.8,2.4,22.8,6.5,33.1,13.1c4.2,2.7,8,5,10.3,9.4
			c0.7,1.3,2.1,2.6,3.5,3.2c5.6,2.8,7.4,8,8.7,13.4c3.5,13.8,6.8,27.7,10,41.5c0.8,3.3,1.1,6.8,1.6,10.2c1.9,12,3.9,24,5.8,36.1
			c3.1,19.8,0.6,38.4-10.4,55.7c-4.6,7.3-8.5,15.1-12.7,22.7c-6.2,11.3-15.6,19.9-25.4,27.9c-9.6,7.8-19.5,15.4-29.5,22.7
			c-11.5,8.3-23.3,16.4-36.2,22.7c-7.8,3.8-15.1,8.6-22.9,12.4c-9.5,4.6-19.2,8.8-28.9,12.9c-10.7,4.5-21.5,8.7-32.3,13.1
			c-11.1,4.5-22,9.4-33.2,13.7c-7.2,2.8-14.7,4.7-22,7.1c-2.2,0.7-4.3,1.8-6.2,3c-4.6,3-10.4,2.4-15.2,4.9c-2.6,1.4-5.1,2.9-7.7,4.2
			c-1.2,0.6-2.6,1.6-3.8,1.5c-11.4-0.6-21.4,4.7-32,7.4c-10,2.6-20,5.6-29.9,8.6c-2.3,0.7-4.6,1.7-6.8,2.9
			c-4.1,2.2-8.4,1.3-12.8,1.5c-10.3,0.4-20.6,1.2-31,1.8c-1.8,0.1-3.7,0.2-5.5-0.2c-13.9-3.1-27.8-6.1-41-11.6
			c-8.5-3.5-16.8-7.6-24.9-11.9c-2.7-1.4-4.7-4.2-7.1-6.3c-6.7-5.7-13.3-11.3-20.1-16.8c-3.4-2.7-7.4-4.7-10.3-7.8
			c-2.7-2.9-4.3-6.8-6.5-10.2c-5.9-9.1-11.9-18-16-28.1c-3.4-8.4-3.3-16.6,0.5-24.8c8.5-18.3,20.1-34.6,33.2-49.8
			c17.9-20.8,38.8-38.6,59.9-56c11.5-9.5,24.2-17.5,36.3-26.3C469.6,290.9,474.7,287,479.8,283.2z"/>
		<path class="st1" d="M686.8,230.8c4.5,9.4,5.8,19.6,7.3,29.7c0.1,0.8-0.3,1.8-0.6,3.5c-4.6-3.8-5.6-8.2-6.3-12.8
			c-0.3-2.3,0.2-5.1-3.3-5.8c-0.4-0.1-0.8-1-1.1-1.7c-1.2-3.2-2.1-6.5-3.6-9.6c-1.3-2.8-3.2-5.4-5.1-8.6c2.2-1.2,3.9-2.2,5.3-3
			C683.8,224.2,685.2,227.4,686.8,230.8z M664.7,267c1.4-1.3,2.6-2.4,3.7-3.6c1.2-1.3,3.2-2.9,0.9-4.4c-0.8-0.6-3.5,0.4-4.4,1.5
			C663.6,262.1,661.8,264.3,664.7,267z M609,215c2.7-3.2,5-6,7.7-9.3C609.5,205.4,607,208.5,609,215z M593.8,205.6
			c0.4,0.4,0.8,0.7,1.2,1.1c4.7-3.3,9.5-6.7,14.6-10.2c-1.7-1.9-2.9-3.2-4.6-5C599.4,195.5,594.7,199.2,593.8,205.6z M584.4,177.6
			c5.8-6.3,5.7-7.5-0.4-11.3C580.3,170,580.1,173.6,584.4,177.6z M704.6,309.7c4.5-1.3,7.3-5.2,7-10.5c-3.9-2.8-7.7-5.5-11.8-8.4
			c-3.1,4.5-6.1,8.7-9,12.8C695,308.2,699.4,311.2,704.6,309.7z M643.1,262c-0.7,5.2,2.5,7.2,6.4,9.8c3.8-5,1.2-11,3.6-16.2
			c1.8,1.2,3.6,2.5,5.4,3.7c0.5-0.2,1-0.5,1.5-0.7c-0.6-1.2-1-2.4-1.8-3.4c-5-6.2-12.5-11.1-9.6-21.1c0.8-2.9-1.3-5.2-4.5-5.9
			c-3.1-0.7-5.8,0.1-7.1,2.9c-1.1,2.4-1.7,5.3-1.7,8c-0.1,6.4,1.9,12.2,5.4,17.6C641.7,258.2,643.3,260.3,643.1,262z M688.7,288.4
			c5.6-2.2,5.6-2.2,2.6-6.2C690.3,284.5,689.5,286.5,688.7,288.4z M653.7,358.3c3.3-0.7,4.6-4,2.9-7c-1-1.8-2.5-3.2-3.8-4.8
			c-1.2-1.5-2.5-3-4.4-5.2c-4.8,3.9-9.5,7.6-14.6,11.7C640.2,358.8,646.7,359.7,653.7,358.3z M602.1,309.6c-1.4-6.7-1.4-6.7-6.4-9.3
			C597.3,303.9,597.5,308.1,602.1,309.6z M607.2,340.6c9.7-5.4,19.4-10.8,29.1-16.1c-0.4-0.7-0.8-1.4-1.1-2
			c-9.5,5.7-19,11.5-28.5,17.2C606.9,339.9,607.1,340.3,607.2,340.6z M659,271.1c-1.9,1.5-3.8,2.9-5.7,4.4c0.4,0.5,0.7,0.9,1.1,1.4
			c1.9-1.5,3.7-3,5.6-4.5C659.7,272,659.4,271.5,659,271.1z M669.3,228.6c-1.7,1.1-3.2,2.1-5,3.2c3.4,3.6,6.2,6.7,9.1,9.8
			c0.5-0.3,0.9-0.5,1.4-0.8C673,237,671.3,233.1,669.3,228.6z M493.3,268.2c0-0.1,0.1-0.1,0.1-0.2c0,0,0,0,0,0v0c0,0,0,0,0,0v0
			c0.1,0,0.1,0.1,0.1,0.2c1.3-0.1,2.7-0.2,4-0.4c0.1,0.4,0.2,0.9,0.2,1.3c-0.8,0.2-1.8,0.8-2.5,0.6c-0.7-0.2-1.2-0.9-1.7-1.5
			C493.5,268.2,493.4,268.2,493.3,268.2C493.4,268.2,493.4,268.2,493.3,268.2c-1.6,2.5-1.8,4.9,1.9,5.3c5.6,0.6,11.3,0.8,17.1,1.2
			c-0.1-1.1,0-1.6-0.2-1.9c-0.1-0.2-0.3-0.4-0.4-0.5c0,0,0,0,0,0c-0.3-0.3-0.2-0.2,0,0c0.3-9,10.4-7.3,13.1-13.7
			c0.2-0.5,2.2-0.5,3.3-0.2c9.6,2,18-1.4,26.2-5.8c1-0.5,1.7-1.5,2.7-2.4c-7.4,1.4-14.3,3.4-21.3,3.9c-7,0.5-14.1-0.3-21.5-0.6
			c-0.4-3.1-0.7-5.5-1-7.9c10.3-3.1,19.8-6.5,29.6-8.7c7.4-1.7,13.3-6,20-9c0.6-0.3,0.9-1,1.3-1.5c-15.8,6.3-31.3,12-49.1,9.6
			c0.4-3.5,0.7-6.4,1-9.2c16.6-1.3,30.7-7.7,44.5-15.1c-14.9,4.8-29.3,11.8-45.7,10.4c-1.2-3.4-2.4-6.6-3.6-10
			c13.2-4.4,27.4-4,39.1-12.5c-5.5-3.3-11-2.4-16.7-0.9c-7.3,1.9-14.8,3-22.3,4.3c-1.1,0.2-2.4-0.8-3.6-1.2c0.5-1.4,0.7-3.1,1.6-4.1
			c0.8-0.9,2.4-1.1,3.7-1.5c8.3-2.6,16.6-5.2,24.9-7.7c2.2-0.7,4.3-1.2,3.7-4.9c-2.3,0.9-4.2,1.5-6.1,2.3c-7.5,3-15.1,5.6-23.3,5.9
			c-6.4,0.2-7.7-1-8.4-7.8c17.1-3.5,31.9-11.5,45.3-22.4c-1.2,0.1-2.2,0.6-3.2,1.1c-7.9,4.2-15.8,8.5-23.8,12.5
			c-6.5,3.2-13.5,4.3-21,2.2c-1-2.8-3.5-5.4-1.5-8.7c8.4-3,17.8-3.2,24.5-9.7c-0.1-0.5-0.3-1-0.4-1.5c-7.8,2.1-15.5,4.2-23.5,6.4
			c0.5-4.8,0.5-4.7,2.7-6.2c3.4-2.4,6.8-4.9,10.1-7.3c-0.2-0.3-0.4-0.6-0.6-0.9c-2.8,0.5-5.6,0.9-8.4,1.4c-0.4-3.3-0.7-6-1.1-8.8
			c1-1.9,4.9-1.7,4.4-4.6c-4.9-0.3-9.4-0.5-13.8-0.8c-5.1-0.3-9.5,2.3-11.4,7.3c-1.4,3.9-2.9,8-3.1,12c-0.2,4.7-0.9,8.9-4.6,12.5
			c1.6,2.6,4.5,4.6,2.7,8.1c-2.6,5-2.4,4.9,1.3,8.8c1.5,1.6,5,2.5,2.9,5.9c-3.2,2-8.5-0.9-10.6,5c4.6,1.4,8.7,2.6,12.9,3.8
			c0.4,2.2,0.8,4.2,1.3,6.6c-3.1,0.3-5.8,0.4-8.5,0.9c-1.2,0.2-2.9,1.1-3.1,2c-0.3,1,0.5,2.9,1.5,3.4c2.1,1.2,4.6,1.9,7,2.6
			c1.8,0.5,3.7,0.7,5.6,1.1c-1.4,1.8-2.8,2.2-4.1,2.7c-1.7,0.6-3.6,1-5,2.1c-1.1,0.8-2.2,2.7-2,3.9c0.2,1,2.3,2,3.7,2.2
			c2.5,0.4,5.1,0.2,7.6,0.3c3.3,0.1,4.5,1.7,3.5,5.3c-0.8,0.1-1.7,0-2.5,0.4c-2.9,1.3-5.5,3.4-5.8,6.7c-0.3,3.7,2.6,5,5.8,5.7
			c1.7,0.4,3.3,0.9,6.3,1.8c-2.8,1.4-4.3,2.2-5.7,2.9c0.1,3.4-0.8,6.3-1.9,9.1c-1.2,3.1-0.6,5.2,2.3,7
			C490.8,267.3,492.1,267.7,493.3,268.2z M525.7,142.5c7.3,0,9.8-2.3,11.4-8.8c-2,1.7-3.7,3.2-5.5,4.6
			C529.7,139.8,527.6,141.1,525.7,142.5z M493.4,268.1C493.4,268.1,493.4,268.1,493.4,268.1C493.4,268.1,493.4,268.1,493.4,268.1
			c0,0-0.1,0.2-0.1,0.2L493.4,268.1z M564.5,168.2c1.2-0.1,2.9,0.2,3.5-0.5c3.3-3.4,6.2-7,9.4-10.7c-1.7-1.9-2.9-3.2-4.5-5
			c-3.1,4.7-5.8,8.8-8.4,13.1C564.1,165.9,564.5,167.2,564.5,168.2z M647.7,283.6c-0.2-0.2-0.5-0.5-0.7-0.7
			c-1.2,1.2-2.5,2.5-3.7,3.7c0.3,0.2,0.5,0.5,0.7,0.7C645.3,286.1,646.5,284.8,647.7,283.6z M502.4,282.8c-3.1,0.8-4.9,1.2-6.8,1.7
			c0.2,0.8,0.2,2.1,0.7,2.3C498.7,288.1,500.5,287.1,502.4,282.8z M503,297.2c-1.7,0.2-3.4,0.3-5.1,0.5c0.1,0.6,0.1,1.2,0.2,1.9
			c1.7-0.2,3.4-0.4,5.1-0.6C503.2,298.4,503.1,297.8,503,297.2z M520.2,146.2c-0.1-0.3-0.2-0.7-0.4-1c-1.2,0.3-2.4,0.7-3.5,1
			c0.2,0.5,0.3,1,0.5,1.5C517.9,147.3,519.1,146.7,520.2,146.2z M527.8,122.5c-0.4-0.3-0.8-0.7-1.2-1c-2.8,2.6-5.6,5.3-8.4,7.9
			c0.4,0.4,0.7,0.8,1.1,1.2C523.5,129.4,526.8,127.3,527.8,122.5z M557.5,153.9c0.9-1.6,1.7-3.2,2.6-4.9c4.2-3.8,4.2-3.8,3.8-9.7
			c-1.7,3.9-2.9,6.7-4.2,9.5C557.8,149.9,556.7,151.4,557.5,153.9z M548.4,143.6c1.6-1.7,3.4-3.4,4.9-5.3c3.2-4.1,2.8-5-2.9-7.5
			c-0.9,4.1-1.8,8.2-2.8,12.3C547.9,143.3,548.2,143.4,548.4,143.6z M597.5,186.7c2.8-3,1.2-5.4-2.2-7.8c-1.2,2.1-2.1,3.6-3,5.2
			c-3,5.3-5.8,10.7-11.7,13.7c-3.3,1.7-6,4.6-9,7c0.3,0.4,0.5,0.7,0.8,1.1C581.6,200.6,590.3,194.6,597.5,186.7z M540.5,129.4
			c0-1.4,0-2.8-0.1-4.1c-0.4-0.1-0.9-0.2-1.3-0.3c-0.3,0.8-0.8,1.6-0.7,2.4c0.1,0.8,0.8,1.6,1.2,2.3
			C539.9,129.6,540.2,129.5,540.5,129.4z M711.7,250.9c-1.7-3.7,0.6-9-0.4-13.3c-1.7-7.3-5.1-14.2-10.3-19.8c-0.8-0.8-2.5-1.2-3.7-1
			c-2.1,0.4-4.2,1.4-6.1,2.2c6,17.1,11.7,33.4,17.6,50.5c0.5-0.9,1.3-1.6,1.3-2.4C710.3,261.8,714.6,257.1,711.7,250.9z
			 M728.9,244.4c-1.1-2.2-0.4-5.3-0.6-8c-0.3-3.8-0.5-7.6-1.4-11.3c-0.7-3.1-2.4-6-3.4-9c-1.7-5-1.7-5.1-6.7-4
			c-1.5,0.3-3,0.8-4.9,1.3c4.6,15.3,9,30.2,13.4,45.1c0.6-0.1,1.3-0.2,1.9-0.2C728.4,253.8,731.7,249.8,728.9,244.4z M806.6,227.8
			c0.6-1.8,0.3-4.1-0.1-6.1c-1-4.7-2.7-9.2-3.4-13.9c-0.7-4.1-2.7-4.9-7.7-3.7c0.1,5.4-0.1,10.6,0.2,15.7c0.4,5.4,1.2,10.9,1.9,16.3
			c0.3,2.2-0.4,5.1,3.2,6.6C802.8,237.5,804.9,232.7,806.6,227.8z M760.6,205.4c-2.1,0.3-3.9,0.6-7,1c-1.3,19.5,7.1,36.9,8.9,56.5
			c2.7-3.2,4.6-5.4,6.4-7.6c0.1-0.1-0.1-0.4-0.2-0.5c-1.3-4.4-1.1-4.4-0.9-5.8c0.5-2.9,0.7-5.8,1.1-8.7c1-8.7-2.3-16.7-4-24.9
			C764.2,211.9,762.1,208.8,760.6,205.4z M620.9,257.7c5.6,8.9,11.1,17.6,17,26.9c2.4-2.2,4.1-3.9,6-5.7c-3.3-5-6.2-9.6-9.4-14
			C631.1,260.4,626.5,257.8,620.9,257.7z M765.9,184.4c0.1,0.4,0.2,0.9,0.3,1.3c1.3-0.2,2.6-0.4,3.8-0.7c-0.1-0.5-0.2-1-0.3-1.5
			C768.4,183.8,767.2,184.1,765.9,184.4z M658.5,202.9c11.9-0.4,21.7-7,32.6-9.3c-0.1-2.2-0.1-3.5-0.2-5.5
			c-17.1,5.6-34,10-50.4,18.2c2.3,1.8,3.8,3,5.4,4.2C650.3,207.8,656,207.9,658.5,202.9z M691.1,331.6c-0.3-2.7-0.5-4.4-0.7-6.6
			c2.3-0.1,4.2-0.2,6.6-0.3c-1.1-7.3-5.8-11.1-10.8-14.7c-5.9,4.8-10.1,11.2-16.9,14.8c-1.3,0.7-2.1,2.6-3.1,4
			c5.4-0.5,10.9-1,16.2-1.6C685.1,328.6,687.8,330,691.1,331.6z M653.9,339.4c1.6-0.7,3.3-1.5,5.7-2.6c-0.3,2.4-0.5,3.8-0.8,5.9
			c2.8,1,5.8,2.1,8.7,3.1c2.4-3.5,5.1,0.5,8.6-0.2c-0.2-1.7,0-3.6-0.8-4.7c-1.8-2.3-3.8-4.9-6.3-6c-3.1-1.4-2.9-3.5-3.1-5.8
			C660.9,331.1,657.1,334.7,653.9,339.4z M764.3,179.9c4.2-0.8,8.5-0.9,12.6-1.5c2.3-0.3,3.9-0.6,6.1,0.3c1.9,0.8,4,1.2,6,1.3
			c4.9,0.3,9.8,0.3,16.2,0.4c-16.2-5.9-31.2-7.4-46.7-4.9C760.5,177.2,762.7,180.2,764.3,179.9z M758.5,175.5
			c-0.1,0-0.1-0.1-0.2-0.2c0,0.1-0.1,0.1-0.1,0.2c0,0,0,0,0.1,0C758.4,175.5,758.5,175.5,758.5,175.5z M666.3,328.9
			c-0.1,0-0.2,0-0.3,0c0,0.1,0,0.1,0,0.2c0.1,0,0.1-0.1,0.2-0.1C666.2,329,666.3,328.9,666.3,328.9z M814.2,199.2
			c0.5-3.2-0.3-5.5-3.9-5.9C811.6,195.3,812.9,197.2,814.2,199.2z M746.4,236.4c-0.8-2.3-2.2-4.7,0.7-6.7c0.5-0.3,0.9-1.3,0.7-1.8
			c-1.3-4.6-2.6-9.2-4.3-13.6c-0.8-1.9-2.5-3.5-4-5c-2.3-2.5-4.5-0.4-6.6-0.1c0.3,2.6,1.4,5,0.7,6.5c-1.6,3.2-0.3,5.7,0.6,8.5
			c2.6,8.3,5.3,16.6,7.5,25c0.9,3.4,2.9,4.4,6.4,4.4C749.3,246.5,749,243.6,746.4,236.4z M510.4,342.6c2.6-1.2,5.3-2.4,8.4-3.8
			c-0.5-4.1-1.9-8.9-1.6-13.7c0.2-4.6-3.2-9.7,1.6-14.8c2.9,9.9,5.5,19.1,8.2,28.5c1.7-0.1,3-0.1,5.1-0.2c-1.1-4.2-2.1-7.5-2.9-10.8
			c-1.3-6-2.8-12-3.5-18.1c-0.5-4.1-2.3-7.3-4.7-10.4c-1.6-2.2-3.3-3.9-6.2-3.5c-3,0.4-4.1,2.7-4.9,5.2c-2.2,7.2-4.9,14.4-6.5,21.8
			c-1.1,5.1-0.9,10.5-0.6,15.8C503.1,342.7,506.6,344.3,510.4,342.6z M720.5,290.1c10.8,5.4,21.7,10.8,34.4,9.1
			c2.8,2.3,4.6,0.3,6.4-1.5c5.4-5.3,10.9-10.6,16.2-16c3.3-3.4,5.6-7.5,6.6-12.2c-4-1.5-7.3-1.1-9.5,2.3c-1.6,2.5-3.4,3.5-6.3,2.6
			c-0.8-0.2-1.9-0.2-2.6,0.2c-4.5,2.6-8.8,5.4-13.3,8.1c-3,1.9-5.6,6-9.6,3.9c-3.9-2-3.3-6.6-3.7-10.4c-0.3-2.6-0.5-5.2-0.7-7.9
			c-10.5,2.5-16.6,9.8-24.6,17C716.5,287.3,718.3,289,720.5,290.1z M703,191.5c8.5-2.7,17.2-4.8,25.7-7.3c2.6-0.8,5-2.2,8.6-3.8
			c1.3,0.7,3.7,1.9,6,3.2c4.6-3.4,11.6-2.3,14.9-8c-2.2,0-4.5-0.3-6.7,0.1c-17.6,3.3-35.1,6.7-52.6,10.1c-1.5,0.3-2.8,1.2-4.2,1.8
			C696.4,191.7,698.8,192.8,703,191.5z M786,254.7c0.5-7.7,1.8-15.5,1.2-23.1c-0.7-9.2-2.9-18.4-4.5-28.1c-2.6,0-5,0-8.8,0
			c1.2,8.7,1.1,16.7,3.7,23.8c2.2,5.9,2.1,11.5,2.5,17.3c0.1,1.8,0,3.7,0.2,5.5C780.7,254.3,781.2,254.6,786,254.7z M552.6,265.6
			c-4.6,1.6-9.2,3.2-13.9,4.8C549.3,271.1,549.3,271.1,552.6,265.6z M577.1,286.2c1.6,4.6,2.8,8.2,4.2,11.7c1.8,4.7,3.6,9.4,5.8,14
			c1.1,2.2,2.1,5.3,6,4.1c-1.2-9.2-9.6-15.8-8.6-25.8C582.3,289,580,287.8,577.1,286.2z M543.3,279.5c-0.2-0.4-0.4-0.7-0.6-1.1
			c-12.3,1.5-24.6,3.1-36.9,4.6c0.1,0.7,0.1,1.3,0.1,2c1.7,0.3,3.4,0.9,5.1,0.9c2.9,0,5.9-0.3,8.8-0.7c6.8-0.9,13.5-1.9,20.2-3
			C541.3,281.9,542.2,280.4,543.3,279.5z M612.7,324.5c3.6-2.4,7-5.2,10.7-7.5c13.5-8.4,26.5-17.4,37.4-29.2
			c5.3-5.8,10.7-11.3,16.1-17c1.9-2,1.6-3.6-1.5-4.9c-10.1,11.5-18.7,23.9-30.8,32.9c-12.1,9-24.6,17.5-36.9,26.2
			C609.7,325.6,611.4,325.4,612.7,324.5z M548.6,339.6c-6.2,1.7-12.4,3.4-18.6,5.1C537,346.1,542.8,343.2,548.6,339.6z M586.5,212.5
			c-6,3.6-12.6,6.2-16.9,12C576.6,222.2,583.3,219.7,586.5,212.5z M610.2,250.5c-2.9-0.9-6.9,0.6-8.2,3.5c-1.1,2.5-1.7,5.2-2,7.9
			c-0.6,5.4,0.8,11-2.3,16c-0.2,0.3-0.2,1,0,1.2c4,3.2,2.1,8.1,3.6,12.1c1.2,3.2,2.3,6.3,3.2,9.1c5.2,0.7,6.5-3,8.5-5.9
			c1.9,1.8,3.5,3.3,5,4.7c0.4-0.4,0.8-0.7,1.3-1.1c-2.2-3.8-5.1-7.4-6.5-11.5c-1.4-4.4-2.5-9.3-0.3-14.7c4.2,4.9,8.1,9.3,11.6,14
			c1.1,1.4,0.7,3.9,1.1,5.9c0.1,0.6,0.4,1.1,0.7,2c1.8-1,3.3-1.8,4.9-2.6c-3.9-7.7-7.5-15-11.1-22.3c-0.7-1.4-1.2-3.3-2.4-4.1
			c-2.7-2.1-3.3-4.5-3-7.7C614.7,253.9,613.2,251.5,610.2,250.5z M560.8,330.9c0.6-1.8,0.9-3.8,1.4-6.2c1.9,3,3.6,5.3,7.5,2.3
			c-4.9-10.6-7.5-21.4-7.2-34.1c1.4,1.6,2,1.9,2.3,2.5c3.9,8.5,7.8,17.1,11.6,25.6c0.9,1.9,2,3.2,4.7,0.9
			c-3.5-10.1-7-20.5-10.6-30.8c-1.5-4.3-2.9-8.5-4.4-12.8c-1.7-4.8-6.9-6.2-10.4-2.5c-1.4,1.4-2.8,3.4-3,5.3
			c-0.7,5.7-1.6,11.5-0.9,17.1c1,7.7,0.5,15.1-0.3,22.6c-0.3,3.2-0.4,6.4-0.2,9.6c0.1,2.4,1.1,4.6,3.9,4.9
			C558.3,335.5,559.9,333.4,560.8,330.9z M628.9,372.7c2-9.8,2-9.8-0.1-14.9c-5.2,2.4-10.5,3.6-15.5,8.1
			C619.1,368.3,622.6,373.3,628.9,372.7z M613.2,350.5c-11.3,6-23.4,10.5-34.6,16.6c17-1.9,58.3-24.2,68.6-36.6
			C635.6,337.3,624.6,344.4,613.2,350.5z M606.3,368.2c-7.9,2.8-14,4.9-21.5,7.5c3.8,3.6,6.8,6.4,10.6,9.9
			C599.2,379.5,602.3,374.5,606.3,368.2z M563.4,373.6c-1.6,0.7-3.1,1.4-4.7,2.1c0.1,0.2,0.2,0.4,0.2,0.5c1.6-0.7,3.1-1.4,4.7-2.1
			C563.5,374,563.4,373.8,563.4,373.6z M548.7,384.5c4.7,5.6,10.5,8.6,17.4,10.8c3.7-5.8,8.5-10.9,9.3-19.1
			c-5.3,1.8-9.5,3.4-13.9,4.8C557.4,382.3,552.5,381.1,548.7,384.5z M683.3,274.3c-10.6,18.7-26.3,32-43.2,46.3
			c11.7-5.4,30.3-21,37.1-30.5c2.6-3.5,5.1-7,7.9-10.5C687,277.2,686.4,275.6,683.3,274.3z M528.6,307.7
			c2.2,10.3,4.4,20.4,10.2,29.4c3.2-0.9,5.8-1.5,9.2-2.4c-2.3-4.5-5-7.8-5.5-11.5C541.1,314.7,533.7,312.5,528.6,307.7z M503,129.6
			c2.5-1.4,4.6-2.6,7.9-4.5C505,124.9,504.9,124.9,503,129.6z M733.9,411.8c-2.2-6.2-6.6-6-11.8-6.8c6.2,10.9,12.1,21.2,18.1,31.7
			c3.6-0.8,4.6-2.2,3.2-5.1C740,425.1,736.3,418.7,733.9,411.8z M772.3,376.7c-0.2,0-0.4,0.2-0.8,0.4c5.5,10.2,11,20.3,17,31.3
			c3.1-2.8,5.6-5.1,7.6-6.9c-3.4-5.3-6.8-9.8-9.3-14.8C783.7,380.6,780.2,375.6,772.3,376.7z M742.4,384.3c-1,3.8-1.3,6.8-2.6,9.4
			c-1.7,3.6-1,6.6,0.7,9.8c3.9,7.5,7.7,15.2,11.6,22.7c0.7,1.4,1.6,2.6,2.6,4.3c2.3-1.2,4.3-2.3,7.1-3.8
			c-3.8-7.6-7.7-14.1-10.4-21.1C748.7,398.7,747.1,391.3,742.4,384.3z M791.3,351.2c-0.7,0.8-1.6,1.3-1.7,2
			c-1.3,7.5-5.3,15.1,1.5,22.1c0.8,0.8,0.9,2.1,1.5,3.1c3,5.3,6.1,10.5,9.2,15.8c6.8-6,8.4-10.6,4.6-14.9
			C799.1,371.2,796,361.1,791.3,351.2z M826.9,309.7c-0.9,4.2-0.3,7.8,2.2,11.6c2.8,4.1,4.6,8.9,6.7,13.4c1.8,3.8,3.5,7.7,5.2,11.7
			c4.3-6.3,4-8.6,0.3-14.6c-2-3.2-2.7-7.2-4-10.8c-0.5-1.3-1.1-2.7-1.5-4c-1.2-4.1-4.9-7.1-4.7-11.8c0-1-1.8-2.2-3.6-4.2
			C827.3,304.8,827.4,307.3,826.9,309.7z M818.8,338.7c3.2,7.2,6.2,13.8,9.2,20.6c4.7-4.5,4.7-4.5,2.5-8.8
			c-2.1-4.1-3.7-8.3-2.7-13.4C823.7,334.8,820.9,336.7,818.8,338.7z M808.5,341.8c-3.6-5.2-7.5-9.9-16.2-8.3
			c7.8,14.9,15.3,29.1,22.7,43.1c1.1-0.2,1.4-0.2,1.6-0.3c0.6-0.4,1.1-0.8,1.6-1.3c4.6-4.3,4.2-4.3,1.5-10.1
			c-1.9-4.1-5.5-7.9-4.6-13.2c0.2-1-1-2.4-1.8-3.5C811.8,346.1,810.1,344,808.5,341.8z M771,341.8c1.2,1.8,2.5,3.7,4.3,6.3
			c1.9-6.6,1.8-12.1-0.3-17.8C768,333.8,767.2,336.1,771,341.8z M756.9,372.5c-2.1-3.2-5.2-4.9-9.8-3.7
			c8.9,16.9,13.6,35.4,24.4,51.7c3.2-2.4,5.9-4.5,9-6.8c-5.1-9.4-9.7-18.1-14.5-26.6C763.2,382.1,760.1,377.2,756.9,372.5z
			 M703.3,402.4c7.3,14.6,13.9,27.9,20.7,41.8c1.8-1,3.4-1.9,5.5-3.1c-6.4-12.8-12.6-24.9-19-37.6
			C708.8,403.2,706.7,402.9,703.3,402.4z M641.7,471.6c-1-3.3-1.9-6.4-3.2-10.6C634,466.4,634.9,468.2,641.7,471.6z M645.3,432.3
			c2.4,7.3,7.1,12.4,10.1,18.4c3,6.1,6.8,11.8,10.3,17.9c3.3-1.3,6.4-1.4,8.1-5c-6.1-6.2-8.7-14.6-14.2-21.3
			C656,437.9,653.1,433,645.3,432.3z M642.9,456c2.6,4.3,5,8.7,7.6,13c1.1,1.9,2,4.1,5.7,3.8c-0.4-2.4-0.3-4.8-1.2-6.5
			c-3.2-5.9-6.9-11.5-10.6-17.7C641.6,450.9,641.2,453.2,642.9,456z M700.7,415.4c-1.8-2.8-2.7-6.9-7.6-7.8
			c-3.1,6,0.2,10.3,2.6,14.6c2.7,4.8,5.9,9.2,8.8,13.9c2.7,4.3,5.2,8.7,7.8,13c1.3-1.4,1.6-2.4,1.2-2.9c-4.5-5.5-3.2-13.7-8.8-18.7
			c-0.7-0.7-0.8-2.1-1.2-3.2C702.7,421.3,702.3,417.9,700.7,415.4z M682.4,442.4c-6.1,1-9.9-6.4-17.1-4.7
			c6.1,8.6,11.7,16.5,17.2,24.4c2.8-1.2,5-2.3,8.3-3.7C686.1,453.8,684.1,448.4,682.4,442.4z M696.1,436.3
			c-1.8-3.8-3.5-7.6-5.1-11.4c-3.3,3.8-3.4,9.6-2.3,13.5c1.7,5.9,6.3,10.9,9.7,16.4c4.1-0.6,6.1-1.9,4.5-5.1c-1.1-2.3-1.8-4.4-1.8-7
			c0-1.5-2.1-3.1-3.2-4.6C697.3,437.4,696.5,437,696.1,436.3z M842.7,258.4c0.6-2,1.6-4.1-0.7-5.7
			C841.8,254.7,839.7,256.8,842.7,258.4z M514.1,474.7c0,0.1,0,0.1,0,0.2c0.1,0,0.1,0,0.2,0C514.3,474.8,514.2,474.8,514.1,474.7z
			 M373.2,386.8c5.8-7,13.6-12,18.4-19.9c2.2-3.6,4.8-7.5,8.1-10c4.9-3.8,8.9-8.5,13.4-12.5c4.7-4.2,9-8.7,13.7-12.8
			c7.6-6.9,16.8-12,25.3-17.9c0.6-0.4,1-1.3,1.4-1.9c-1.9-2.7-3.6-1.2-5-0.2c-11.9,9.4-24.3,18.3-35.6,28.4
			c-13.5,12.1-26.7,24.7-38.7,38.3c-10,11.3-18.2,24.2-27.1,36.4c-1.7,2.4-2.2,4.9,0.3,7.2c3.3-5.7,6-11.8,10-17
			C362.1,398.5,368.1,393,373.2,386.8z M510.9,467.8c-0.3,1.1-1.3,2.7-0.9,3.3c1.1,1.4,2.7,2.5,4.1,3.6c-0.1-1.7,0-3.5-0.5-5
			C513.4,468.9,511.9,468.4,510.9,467.8z M347.4,421.9C347.3,421.9,347.3,421.9,347.4,421.9c-0.1,0.2-0.1,0.4-0.2,0.5
			c0.1-0.1,0.2-0.2,0.4-0.3C347.5,422,347.4,422,347.4,421.9z M375,468.1c-2.4-1-4.8-1.9-7.2-3.1c-2.4-1.2-4.7-2.6-7.9-4.4
			C363.6,467.7,369.5,467.4,375,468.1z M831.5,205.7c-1.7-1.7-3.1-3-4.4-4.3c0.8,2.1,1.5,4.2,2.2,6.3c0.5,1.5,0.5,3.2,1.3,4.5
			c3.5,5.6,3,11.3,1.1,17.9c-1.3-1.3-2.4-2.2-3.8-3.6c-1.2,2-3.2,3.7-0.8,6c4,3.8,2.9,7.8,1.1,12c-1,2.5-2.3,4.8-3.6,7.6
			c-2.3-1.5-3.8-2.9-5.6-3.7c-1-0.4-3-0.1-3.6,0.7c-0.6,0.7-0.4,2.6,0.2,3.6c1.3,2.2,3,4.1,4.7,6.4c-1.8,2.9-3.6,5.8-5.7,9.1
			c3.6,2.1,6.7,4.5,10.3,5.9c1.7,0.7,4.1-0.5,6.1-0.8c2,2.3,3.9,4.8,6.1,7.1c2.9,3.1,3.4,6.5,1.2,9.1c-2.1,2.5-5.3,2.8-8.7,0.6
			c-6-3.8-11.9-7.8-17.9-11.7c-0.8-0.5-1.6-0.8-2.6-1.3c-5.4,4-7.5,11.1-14.1,14c0.9-2.2,2.3-4.4,2.5-6.7c0.1-1.7-1.4-3.5-2.3-5.4
			c-5.4,4.4-5.4,4.4-2.6,9.7c3.3,6.3,2.9,8.4-2.2,12.4c-2.3,1.8-4.1,1.4-5.5-1.3c-0.9-1.8-2-3.5-3.2-5.7c-1.9,1.2-3.3,2.2-4.5,3
			c0.1,5.6,4.9,5.6,8.2,7.7c-0.7,1.6-1.4,2.9-2.1,4.6c3.4,0.5,6.7,0.5,9.7,1.5c3.8,1.2,5.9-1.5,8.6-2.8c2.4,2.2,4.7,4.2,6.9,6.2
			c-4.4-7.2-4-9.6,3.5-17.2c2.4,6.5,2.2,9.5-0.7,15.9c1.1,1.4,2.4,3,3.7,4.4c2.3,2.6,2.7,5.4,0.9,8.2c-1.9,3-4.7,3.4-7.9,2.5
			c-5.3-1.4-10.6-3-16-4.2c-3.2-0.7-3.3-0.5-6.5,2.3c-2.4-5.1-7.6-3.7-11.6-5.3c-5.2-2-8.1,1.1-11.2,4c-2.3-1.6-4.3-3.9-6.6-4.4
			c-1.3-0.2-3.2,2.5-4.7,3.9c4.1,5.8,5.3,7.5-3,11.6c-5.1-5.4-5.1-5.4-10.9-1.5c2.1,1.8,4.1,3.5,6.4,5.5c-0.9,1.5-1.9,3-3.2,5
			c3.8,0.2,7.5-0.2,10.8,0.7c4.8,1.3,6.4-2.9,9.8-4.7c0.6,0.5,1.4,1,1.7,1.7c2,3.8,4.6,6.7,8.9,7.8c1.3,0.3,2.4,1.3,3.5,2.1
			c2.9,2.2,3.7,4.9,2.4,7.9c-1.4,3.2-4.3,4.3-8.1,3.3c-6.4-1.8-12.8-3.6-19.2-5.3c-4.3-1.2-5.3-0.9-8.7,1.2
			c-5.3-2.7-10.3-5.3-15.5-8c-3.6,5.9-9.2,8.9-15.3,11.1c-0.8-0.9-1.5-1.6-2.5-2.8c0.6,5.1-2.5,7.3-5.8,9.1
			c-1.6,0.8-2.5,0.1-6.1-3.8c-1.7,0.9-3.5,1.8-5.8,2.9c1.1,1.3,2,2.3,3.1,3.6c-1,1.3-2.1,2.8-3.6,4.7c4.9,1.6,9.4,3.2,12.7,4.3
			c10.2-6.1,19.1-12.8,30.1-16.5c0.8,3.9,0.2,7.3-0.8,10.8c-1.3,4.8-3.2,9.5-1,14.8c1.3,3.1-0.6,6-4,7c-2.3,0.7-5,0.8-7.4,0.6
			c-4.1-0.5-8.2-1.3-12.2-2.3c-3-0.8-6-1.9-8.9-3.1c-7-2.9-13.9-5.9-21.2-9c-4.3,1.5-7.9,5.5-13.3,5.5c-3.9,0-3.3,5.2-6.5,6
			c-2.8,0.7-5.6,0.9-8.4,1.5c-0.6,0.1-1.2,1.2-1.5,2c-1.7,4.5-2.2,4.7-6.9,4.6c-2-0.1-4,0.8-6,2c9,5.1,19,5.2,29,7.2
			c-1.2-2.1-2.3-4.1-3.7-6.6c6.8-4.1,13.4-8.1,20.5-12.3c2.8,5.2,1.1,10.2-0.6,16.7c-2-3.7-3.4-6.2-4.9-8.9
			c-2.4,1.1-3.4,5.5-7.5,1.1c2.2,9.9,11,14.6,11.4,23.4c-8.1,4.2-15.4,0.9-22.6-1.7c-7.6-2.7-15-5.8-22.6-8.7
			c-5.1-1.9-5.1-1.8-10.5,0.6c-0.9-1.1-1.9-2.3-3.1-3.7c-2.1,0.9-4.1,1.8-6.1,2.7c2.2,7,1,8.8-6.6,9.5c-0.9-1.6-1.9-3.4-2.9-5.1
			c-6.7,1.6-6.8,1.8-5.2,9.2c-1.4,0.6-2.8,1.3-4.3,1.9c-1.3,0.5-2.6,0.9-4.1,1.5c-1.4-1.9-2.8-3.7-4.5-6c-2,0.8-4,1.5-6.2,2.3
			c2.3,7.2,8.5,8.5,13.7,11.4c2.8-1.4,5.6-2.8,8.7-4.4c4.4,7.3,6.6,16.8,18,15.4c-0.5-7.2-8.7-10.4-8.1-17.8
			c3.7-3.3,7.5-4.3,11.3-1.5c3.3-4.4,5-9.9,11.5-10.5c-1.1,2.4-2.5,4.5-2.8,6.8c-0.2,2.4,0.8,4.8,1.1,7.3c0.1,1.1-0.4,2.2-0.7,3.8
			c-2.7-0.6-5.2-1.2-9-2.1c2.3,3.3,4.1,6,6,8.6c-0.1,0-0.1,0-0.1,0c-0.5,3.6-0.8,7.3-1.4,10.9c-0.9,4.9-2.4,6.5-7.2,6.4
			c-4.8-0.2-10-0.4-14.2-2.4c-11.6-5.5-24-9.6-33.2-19.6c-3.3,1.5-6.3,2.8-9.4,4.2c-4.1-8.2-5-8.5-11.7-3.2c0.9,2,1.8,4.1,2.8,6.3
			c-2,0.9-4,1.8-6.2,2.8c-1.8-2.2-3.4-4.1-5.3-6.3c-2.1,0.6-4.3,1.3-6.8,2c0.7,2.5,1.3,4.6,1.9,6.7c-3.3,1.6-3.3,1.6-7.3-4.4
			c-0.6,0-1.3-0.1-1.9,0.1c-1.2,0.5-2.4,1.2-3.6,1.8c0.9,2.8,1.7,5.2,2.6,8.1c4,1.8,4,1.8,19.6-1.2c2.2,2.8,1.4,7.8,6.7,9.5
			c-1.4-4-2.6-7.5-3.9-11.1c7.4-2.7,14.4-5.2,22.2-8c-0.5,2.8-0.6,4.8-1.1,6.7c-2,6.7-4.1,13.4-4.8,20.5c-0.6,5.2-1.9,6.3-7,6.5
			c-2.3,0.1-4.7-0.1-6.8-0.9c-10.4-3.7-20.8-7.4-31-11.5c-3.6-1.4-6.7-3.8-10.4-6c-6,1-6,1-10.4-3.6c-1.9,0.5-4.1,1-7,1.7
			c1.8,1.6,3,2.6,4.6,4c-2.4,1.1-4.5,2-7.1,3.2c-1.4-1.7-2.7-3.5-4.1-5.2c-5.6,1.1-5.6,1.1-2,6.7c-2.7,0.7-5.2,1.4-7.5,2
			c-1.7-2.5-3.2-4.6-4.7-6.7c-1.3,3.2,2.6,6.2-1.9,8c6.4,6.8,12.6,4.3,18.6,1.3c2.6,7.2,4,8.9,9.6,11c-2.3-4.1-4.2-7.5-6.4-11.5
			c4.1-1.5,7.7-2.8,11.7-4.3c1.8,3.5,3.9,6.3,8.1,5.5c0,0,0,0,0,0c-3,4.9-2.1,10.5-2.1,15.8c0,6.7-2.2,8.6-8.6,7.1
			c-11.3-2.6-21.4-7.9-31.6-13.2c-5.3-2.7-8-7.9-11.7-12.2c-0.8-0.9-2.3-1.4-4.4-2.6c0.6,2.9,1,4.3,1.3,6c-0.8,0.4-1.4,0.7-2,0.9
			c-3.3,0.9-6.7,1.7-9.9,2.7c-2.8,0.8-5,0.1-6.4-2.5c-1-1.9-2.1-4.3-4.5-2.5c-3.2,2.4,0.4,3.9,2,6.2c-4.4,1.2-8.3,2.3-12.2,3.3
			c-4.4-2.9-6.6-10.2-14.2-6.3c5.1,5.9,9.7,12,18,13.4c0.4-0.9,0.8-2.7,1.6-3c2.4-0.7,4.9-1,7.4-1.2c3.7-0.4,6.4,0.9,8.9,3.9
			c4,4.8,8.2,9.5,11.3,15c1.4,2.5,1.9,4.7-0.1,6.9c-1.8,2-4.1,2-6.3,0.9c-4.2-1.9-8.3-4-12.4-6.1c-9.1-4.5-18.2-8.8-27.2-13.5
			c-6-3.2-12.8-5.4-16-12.4c-0.4-0.8-2.3-0.8-4.3-1.5c0.5,2.4,0.9,4,1.4,6.5c-3.4-0.1-6.9,0.6-9.5-0.6c-2.6-1.1-4.3-4.2-7.5-5.6
			c0.7,1.6,1.4,3.1,2.1,4.6c-0.6,0.5-0.8,0.7-1,0.7c-1.6-0.1-3.9,0.2-4.5-0.6c-4.4-6.3-14.4-2.8-18.1-11
			c-2.8-6.2-7.2-11.7-10.5-17.8c-3.4-6.2-4.3-13.1-4.1-20.1c0.1-2.8-1.4-7.3,4.1-7.7c0.4,0,0.5-2.2,1.1-3.1c0.9-1.2,2-2.2,3.1-3.2
			c-2.8,8.8-3.4,17.7-2,26.7c1.6,9.9,6.4,17.8,15.9,21.6c3.9,1.6,8.5,1.6,12.8,1.8c4.8,0.2,9.6-0.2,14.5-0.5c3-0.2,6-0.5,8.9-0.9
			c8.2-1.2,16.4-2.2,24.5-3.8c12.6-2.4,25.3-3.5,37.8-6.9c11.4-3.1,21.7-8.7,33-11.9c0.7-0.2,1.4-0.9,1.9-0.7
			c6,1.7,10.4-3.2,15.9-3.7c1.1-0.1,2.6-0.3,3-1c3-4.5,8-5.2,12.5-6.7c4.3-1.4,8.9-1.9,12.7-4.8c0.7-0.5,1.7-0.9,2.6-1
			c15.5-1.6,28.8-9.3,42.9-15.1c14.1-5.8,28.1-11.7,41.7-18.5c18.5-9.3,36.8-19,52.3-33.2c2.6-2.4,6.2-4,9.5-5.4
			c10.1-4.1,19.6-9.1,28.5-15.3c1.9-1.3,3.5-3,5.2-4.5c4.1-3.4,8.3-6.6,12.3-10c3-2.5,5.8-5.2,8.6-7.8c5.1-4.7,10.3-9.2,15.1-14.2
			c8.9-9.3,17.4-19,26.1-28.5c3.4-3.7,6.6-7.8,10.4-11c6.2-5.4,10.6-12,15-18.8c4.7-7.1,9.1-14.3,12-22.4c1.7-4.8,3-9.5,2-14.8
			c-0.8-4-0.3-7.9,4.4-9.8c-1.2-0.6-2.9-0.9-3.6-1.9c-3.1-4.6-5.9-9.3-8.9-14.1C822.3,188.9,830.4,198.4,831.5,205.7z M723.2,384.5
			c1.1,0.1,2.2,0.1,4.2,0.2c-2-3.2-3.6-5.5-5.4-8.3C717.2,380.5,725.4,381.4,723.2,384.5z M630.1,444.9
			C630.1,444.9,630.1,444.9,630.1,444.9c0,0.1,0,0.1,0,0.1C630.1,445,630.1,445,630.1,444.9z M845.7,245.1c-1.3,2.5-2.5,5-3.7,7.6
			c6-2.8,6-3,4.3-7.8C846.1,244.9,845.8,244.9,845.7,245.1z M845.4,262.8c-0.1-1.8-0.2-3.5-0.4-5.7c-1.2,0.7-1.8,1.1-2.3,1.3
			c0.5,1.5,1,3.1,1.5,4.6C844.6,263,845,262.9,845.4,262.8z M842.7,258.5C842.7,258.5,842.7,258.5,842.7,258.5
			C842.7,258.4,842.7,258.4,842.7,258.5C842.7,258.4,842.7,258.5,842.7,258.5C842.7,258.5,842.7,258.5,842.7,258.5z M841.8,275.6
			c3.7-6.8,0.8-11.5-2.9-16.5C832.9,267.1,833.2,269.1,841.8,275.6z M629.9,440.9c0.1,1.3,0.2,2.7,0.2,4
			C633.7,444,631.7,442.4,629.9,440.9z M849.4,324.4c2.2-9.8-1.1-17.8-1.5-26.7c-3.3,1.5-5.9,2.6-8.7,3.9
			C842.5,309,845.6,316,849.4,324.4z M617.6,470.4c3.3,4.4,6.7,8.8,10,13.2c2.9-1.1,5-1.9,7-2.7c-0.4-2.3-0.7-4.2-1.1-6.5
			c-4.7-2.1-9.6-4.2-14.5-6.3C618.6,468.9,618.1,469.6,617.6,470.4z M842,252.7C842,252.7,842,252.7,842,252.7
			C842,252.7,842,252.7,842,252.7C842,252.7,842,252.7,842,252.7C842,252.7,842,252.7,842,252.7z M467.4,513.4
			c-2.2,2.9-3.8,5-5.6,7.4c6.6,4.9,12.6,9.6,22.4,9.8c-3.7-3.8-6.2-6.4-8.7-8.9C472.9,519.1,470.3,516.5,467.4,513.4z M426.9,433
			c-0.3-3.5-1.6-5.9-4.2-7.7c-8.2-5.7-16.3-11.5-24.6-17.2c-0.6-0.4-1.6-0.2-3.1-0.4c0.2,5.1,1.9,8.9,5.5,11.7
			c4.5,3.5,9,7.1,13.9,10C418,431.5,422,433.6,426.9,433z M388.5,405.6c-3.5,2.2-2.4,3.6-0.5,5c0.2,0.2,0.8-0.1,1.5-0.3
			C389.2,409,389,407.7,388.5,405.6z M427.5,449.8c-0.7-0.7-1.3-1.7-2.2-2.2c-12-6.1-23.4-13.4-34.3-21.3c-1.8-1.3-4.3-1.8-7.1-2.9
			c1.9,6.7,6.2,10.3,11.3,12.6c4.4,2,7.9,4.5,9,8c8.2,2.6,15.4,4.8,22.7,7.1C427.1,450.6,427.3,450.2,427.5,449.8z M384.4,464.9
			c6.3,2.8,6.8,2.7,9.7,0.5c-8.3-5.5-16.8-11-25.9-17C368.6,458.5,374.2,460.3,384.4,464.9z M446.4,351.2c0.6-1.7,1-2.9,1.5-4.5
			C445.1,347.4,444.3,348.5,446.4,351.2z M438.6,417.3c-12-7.7-19.8-20.4-33.5-26.4c-1.5,5.6,1.3,8.7,4.7,11.5
			c4.6,3.7,9.6,7,14,10.9C428,417.2,432.8,418.3,438.6,417.3z M393.5,453.5c4.9,6.8,11,7.7,19.3,4.7c-10.8-6.5-20.9-12.5-31-18.5
			c-0.4,0.4-0.7,0.9-1.1,1.3c1.9,2.1,3.7,4.3,5.7,6.2C388.7,449.3,391.7,451,393.5,453.5z M421.5,376.3c0.1,2.7-0.1,4.2,0.3,5.6
			c0.9,3.3,2,6.5,3.1,9.7c0.4,1,1.1,2.1,2,2.7c9.6,7,18.1,15.5,30.6,20.3c-3.6-8.7-7.9-15.7-14.5-21.2c-0.8-0.7-1.9-1.5-2.2-2.5
			C437.8,382,429.8,380,421.5,376.3z M496.3,384.8c0.4-0.4,0-1.7-0.1-2.6c-1.7,0.3-3.4,0.6-5.1,0.9
			C492.8,385.1,494.3,386.8,496.3,384.8z M484,334.8c2.5,1.7,3.5,3.9,3.3,6.9c-0.1,1.2,1,2.4,1.5,3.6c0.3-0.1,0.7-0.1,1-0.2
			c-0.8-5.1-1.4-10.2-2.4-15.2c-0.5-2.3-2.7-3.3-4.8-2.3c-2.7,1.2-1.5,3.3-0.4,5.1C482.7,333.5,483.3,334.3,484,334.8z M528.7,422.3
			c3.3,1.8,6.6,1.7,9.7-0.7c4.6-3.6,7.6-8,7.1-14.2c-0.5-7.3-0.9-14.7-1.2-22.1c-0.1-2.3,0.5-4.6,0.8-7c-3.5-2.4-2.4-6.7-3.2-10.6
			c6.8-2.3,13.3-4.5,19.7-6.6c-0.2-0.4-0.4-0.8-0.6-1.2c-6.6,1.6-13.2,3.2-20.1,5c-0.8-2.5-1.2-4.3-1.9-5.9c-1-2.3-2-4.6-3.3-6.7
			c-1.8-2.8-4.6-3.8-7.8-2.7c-3.2,1.1-5,3.5-4.9,6.8c0.2,4.8,0.7,9.6,1.3,14.4c0.4,2.9,1.1,5.8,1.8,9c-2.5,1.1-4.6,2.1-6.9,3.1
			c2,2.9,7.5-1.7,7.3,4.7c-1.8,0.8-3.7,1.6-5.9,2.7c1.1,1.3,1.7,2.3,2.6,2.9c5.5,3.9,5.7,8.9,3.3,14.6c-0.7,1.7-1.4,3.4-1.8,5.2
			C523.7,416.5,525.6,420.6,528.7,422.3z M468.8,346.9c2.8,3.7,8.7,5.4,7.3,11.7c4.7,1.4,3.6,7,6.6,9.4c2.5-1.6,4.8-3,6.7-4.2
			c-2.2-3.9-4-7.2-6-10.4c-3.2-5-6.4-9.9-9.8-14.7c-1.4-1.9-3.4-3.4-4.9-4.9c-3.7,1.9-3.5,4.6-2.8,7
			C466.5,342.9,467.5,345.1,468.8,346.9z M480.6,290c-2.1,1.9-3.6,3.4-6,5.6C480.7,294.9,480.7,294.9,480.6,290z M449.9,356.8
			c5.7,7.9,13.1,14.2,21.5,19.4c-2.9-7.4-4.5-15.2-10-21.1c-2.7-2.8-4.9-6.9-10.2-6.5C449.6,351.2,447.8,354,449.9,356.8z
			 M489.5,365.3c-2.6,3.8-2.1,9.5,0.6,12.8c0.2-0.8,0.3-1.6,0.5-2.5c1.3,1.6,2.6,3.1,4.1,4.9C498.3,372.6,489.9,371,489.5,365.3z
			 M472,312.1c-2.6,2-5.1,3.9-7.7,5.9C470,316.7,470,316.7,472,312.1z M442.1,365.2c-1.2-1-2.6-2.3-4-2.4c-1.8-0.1-4.1,0.5-5.3,1.7
			c-0.7,0.7-0.2,3.7,0.8,4.7c5,4.9,10.1,9.8,15.5,14.2c4.2,3.4,8.9,6.2,14.9,5.9c1.1-3.2-1.1-4.7-2.9-5.7
			c-5.2-3.1-8.8-7.7-12.7-12.1C446.5,369.3,444.3,367.2,442.1,365.2z M526.1,490.4c-2.2,4.7-0.7,8,3,11.4c3.5,3.2,6.3,7.3,9.1,11.1
			c2,2.8,4,4.2,7.6,1.6c-6.3-9.2-12.5-18.2-18.9-27.6C526.5,488.7,526.5,489.6,526.1,490.4z M554.4,497.7c-1.3-0.4-1.9-3.8-2.8-5.8
			c-4-1.7-8.4-3.6-12.9-5.5c-0.4,0.4-0.7,0.7-1.1,1.1c0.4,1.2,0.6,2.6,1.3,3.6c4.5,6,9.1,12,13.8,17.8c3.2,4,3.4,3.8,9.7,0.5
			c-1.7-2-3.1-3.9-4.8-5.7C556.2,502,558.2,498.7,554.4,497.7z M513.2,505.5c1.6,6.3,6.1,9.3,9.9,12.8c4,3.6,4,3.6,9.5,0.4
			c-4.8-5.6-9.6-11.1-14.4-16.7C516.3,503.4,514.8,504.4,513.2,505.5z M494.3,501.8c-3-1.4-6.4-1.9-10.2-3
			c7.4,9.9,15.2,18.7,25,25.6c2.3,1.6,4.4,2.4,6.5,0.4c-4.8-6-9.4-12.1-14.4-17.8C499.4,504.8,496.9,503,494.3,501.8z M584.3,464.9
			c-2.2,3.5-3,8.4-1.1,11.1c4.1,6.1,8.4,12.1,12.5,18.1c1.9,2.8,3.8,2.9,6.5-0.2c-3.3-5.4-6.6-10.9-10-16.4
			C589.6,473.2,586.8,468.9,584.3,464.9z M568.9,495.3c-2.7-0.6-4.9-1.1-7.1-1.5c3.8,5.2,6.3,12.5,14.9,13.2
			c0.3-6.9-6.9-5.2-8.4-9.2C568.6,496.8,568.8,495.8,568.9,495.3z M594.4,462.3c4.3,11.3,11.6,19.4,18.6,28.1
			c2.2-1.3,3.8-2.3,5.3-3.2c-5.1-6.9-10.1-13-14.4-19.6C601.7,464.1,599,462.8,594.4,462.3z M576.4,491.6c3.1,3.8,6.3,7.6,10.8,9.6
			c0.4-0.3,0.8-0.7,1.2-1c-3.3-5.3-6.5-10.6-9.9-16C575.3,489.3,574.9,489.8,576.4,491.6z M394.4,502.8c0.8-3.2,1.5-6.1,2.6-10.4
			c-6.1,0.2-11.3,0.4-16.4,0.5C383.2,499.1,389.1,499.9,394.4,502.8z M473.3,449.8c2.4-1,5-2.3,6.8-4.1c2.5-2.5,3.9-6.5,6.7-8.3
			c5-3.3,6.4-8,7.7-13.1c0.4-1.8,0.9-3.6,1.2-5.4c1-6,2.1-12,0.8-18.8c-6.8,0.7-13.5-0.6-20.5,2.9c1.5,3.5,3.1,6.1,3.9,8.9
			c1.2,4.4,2.5,8.1,7.1,10.2c1.1,0.5,2,3.1,1.9,4.5c-0.3,2.6-2.9,3-4.9,2.6c-12.3-2.3-24.2,1.3-36.2,2.6c-2.9,0.3-5.2,1.6-6.4,4.3
			C446.3,447.9,462,454.6,473.3,449.8z M410.6,508.3c4.4,5.9,11,7.8,17.2,10.3C422.8,513.9,417.6,509.5,410.6,508.3z M442.4,519.7
			c5.9,7.8,12,10.9,18.8,9.7C448.9,519.3,448.1,518.9,442.4,519.7z M445.2,484.7c3.8,4.8,6.1,9,10.9,11.7c0.8-4.5,1.5-8.2,2.3-12.9
			C454,483.9,450.3,484.2,445.2,484.7z M511.2,348c3.5-0.2,6.9-0.3,10.4-0.5C518.1,343.4,514.6,344.8,511.2,348z M471.3,507.3
			c3.2,2.7,6.4,5.2,9.4,8c4.4,4,8.7,8.1,13.1,12.1c1,0.9,2,1.7,3,2.6c0.4-0.7,0.8-1.5,1.3-2.2c-8.9-10.2-17.8-20.4-26.6-30.7
			C466.7,501.4,466.7,503.4,471.3,507.3z"/>
	</g>
	<g>
		<g>
			<g>
				<g>
					<path class="st2" d="M649.1,760.1v8.1h15.8v7h-15.8v13h-8.9v-35.2h26.1v7H649.1z"/>
					<path class="st2" d="M713,770.6c0,10.2-8.1,18-19,18c-10.9,0-19-7.7-19-18c0-10.2,8.1-17.8,19-17.8
						C704.8,752.8,713,760.4,713,770.6z M684.1,770.6c0,5.9,4.6,10.5,9.9,10.5c5.4,0,9.7-4.6,9.7-10.5c0-5.9-4.3-10.4-9.7-10.4
						S684.1,764.7,684.1,770.6z"/>
					<path class="st2" d="M760.4,770.6c0,10.2-8.1,18-19,18c-10.9,0-19-7.7-19-18c0-10.2,8.1-17.8,19-17.8
						C752.3,752.8,760.4,760.4,760.4,770.6z M731.6,770.6c0,5.9,4.6,10.5,9.9,10.5c5.4,0,9.7-4.6,9.7-10.5c0-5.9-4.3-10.4-9.7-10.4
						S731.6,764.7,731.6,770.6z"/>
					<path class="st2" d="M787.3,753.1c11,0,18.7,7.1,18.7,17.6c0,10.4-7.7,17.6-19,17.6h-14.8v-35.2H787.3z M781.1,781.1h6.4
						c5.5,0,9.4-4.2,9.4-10.4c0-6.2-4.1-10.5-9.8-10.5h-6V781.1z"/>
				</g>
				<g>
					<path class="st2" d="M494.9,420.6l7.2,14.4l-1.1,0.5c-7.5-8.9-12.1-10.4-19.7-6.9l-1.7,0.8l10.3,23l2.7-1.2
						c3.9-1.8,4.9-6.5,3.3-12.6l0.9-0.4l9.4,20.9l-1,0.5c-4.5-6.5-7.8-8.3-11.8-6.5l-2.7,1.2l9.7,21.6l7.5-3.4l0.7,1.6l-22.7,10.2
						l-0.7-1.6l3.5-1.6l-20.9-46.4l-3.5,1.6l-0.7-1.6L494.9,420.6z"/>
					<path class="st2" d="M547.5,432.6L553,458l4.2-0.9l0.3,1.4l-20.9,4.5l-0.3-1.4l4.2-0.9l-10.9-50.2l-4.2,0.9L525,410l19.5-4.2
						c13.5-2.9,20.3-2.6,22.7,8.4c2,9.2-1.5,12.9-8.2,15l0,0.2c7.2-0.4,10.3,2.2,12.2,11l0.9,4c1.1,4.9,1.6,6.6,3.4,6.2
						c1.2-0.3,2-1.1,1.6-7.2l1.1-0.1c0.9,8.8-0.4,11.4-6.4,12.7c-8.1,1.8-11.2-0.9-13.5-11.6l-1.2-5.5c-1.2-5.4-2.7-8-6.2-7.2
						L547.5,432.6z M547.1,431.2l2.1-0.4c4.8-1,6.5-4.7,4.8-12.9l-0.5-2.2c-1.8-8.5-4.8-9.3-9.3-8.3l-2.1,0.5L547.1,431.2z"/>
					<path class="st2" d="M633.4,397.5l0.7,15.4l-1.2,0c-3.6-10.2-6.7-13.6-14.7-13.6l-2.3,0l0,24l2.2,0c4.3,0,7-4.3,8.2-10.2l1,0
						l0,23l-1.1,0c-1.6-7.8-4.1-10.8-8.7-10.8l-1.6,0l0,24.9l2.5,0c8.4,0,14.2-6.8,16.1-15.2l1.3,0l-0.5,16.9l-36.2,0.1l0-1.7l3.9,0
						l-0.1-50.9l-3.9,0l0-1.7L633.4,397.5z"/>
					<path class="st2" d="M685.5,450.3c1.2-6.3-2.4-9.2-9.8-13.4c-7.3-4.1-12.6-9-10.3-20.4C667.1,408,674,401,684,403
						c6,1.2,8.9,4.2,11.1,4.6c1.1,0.2,1.5-0.3,2.2-1.2l0.7,0.1l-2.6,15.5l-1-0.2c-1.9-7.6-4.8-16.1-11.5-17.4
						c-4.7-0.9-8.5,1.6-9.4,6.1c-1.1,5.6,2.9,8.4,9,11.7c6.7,3.7,14.1,8.2,11.6,20.8c-2.2,11-9.9,16.9-19.4,15.1
						c-6.3-1.2-11.3-4.6-13.1-4.9c-1-0.2-1.6,0.6-2.4,1.9l-0.9-0.2l2.9-18.2l1.1,0.2c1.7,8.2,6.3,18.4,13.4,19.8
						C679.6,457.5,684.4,455.9,685.5,450.3z"/>
					<path class="st2" d="M749.6,423.8l-0.6,1.4l-3.5-1.5l-9.5,22.1l12.1,5.2l9.5-22.1l-3.6-1.5l0.6-1.4l19,8.1l-0.6,1.4l-3.6-1.5
						l-20.2,47.2l3.6,1.5l-0.6,1.4l-19-8.1l0.6-1.4l3.6,1.5l10-23.2l-12.1-5.2l-10,23.2l3.5,1.5l-0.6,1.4l-18.9-8.1l0.6-1.4l3.6,1.5
						l20.2-47.2l-3.6-1.5l0.6-1.4L749.6,423.8z"/>
				</g>
			</g>
		</g>
	</g>
	<g>
		<path class="st0" d="M987.9,644.9c1.9,0.7,3.8,1.5,5.3,2.7c4.5,4,9,8,13.2,12.3c4.7,4.8,8.9,10,13.6,14.7c5.9,6,10.2,13,13.6,20.4
			c4.9,10.5,7.7,21.8,11.1,32.9c0.1,0.4,0.2,0.9,0.2,1.4c0.6,6.6,1,13.3,1.8,19.9c1.2,10.2-1.1,19.7-5.4,28.8
			c-0.7,1.4-1.6,2.7-2.2,4.1c-2.7,6.6-5.4,13.2-8,19.9c-1.8,4.6-4.6,8.4-7.9,11.9c-10,10.7-22.1,18.4-35.5,24.1
			c-11.5,5-23.4,8.5-36.2,5.3c-4.5-1.1-9.1-1.9-13.6-3.2c-3.7-1.1-7.1-2.9-10.8-4.2c-9.3-3.4-18.1-7.2-24.8-14.9
			c-2.8-3.3-6.2-6.1-9.2-9.2c-2.5-2.6-5.4-3.2-8.9-2.5c-2.4,0.5-4.9,0.6-7.4,1c-2.6,0.4-5.3,0.5-7.6,1.5c-5.7,2.4-11.3,5.1-16.7,8.1
			c-8.2,4.6-16.2,9.6-24.2,14.6c-6.5,4-13,8.3-19.5,12.4c-2.7,1.7-6.1,2.8-8.3,5c-5.5,5.5-12.4,8.6-18.8,12.8
			c-3.6,2.4-7.3,4.8-11.4,6.1c-6,2-12.2,3.6-18.4,4.5c-6.4,0.9-12.8,0-17.9-4.6c-4.4-4.1-7.1-9.6-10.3-14.6
			c-0.3-0.5-0.2-1.2-0.4-1.8c-2-6.4-1.1-12.6,1-18.7c0.9-2.4,2.1-4.8,3.8-6.8c5.6-6.9,13.1-11.2,21.3-14.5
			c13-5.2,25.9-10.4,38.9-15.6c2.9-1.2,5.7-2.5,8.6-3.6c7-2.6,14-5.1,21.1-7.4c8.8-2.9,17.7-5.6,26.7-8.3c1.7-0.5,2.7-1,3.2-2.8
			c0.3-1.1,1-2.7,1.8-2.9c1.5-0.4,1.9-1.3,2.2-2.5c1-4.8,4-8,8.3-10.1c0.8-0.4,1.5-0.9,2.6-1.6c-1.6-6.3-2.8-12.5-4.8-18.6
			c-1.4-4.2-2.1-8.5-1.6-12.8c0.7-7.1,1.7-14.2,2.8-21.2c0.9-5.4,1.5-10.8,3.2-15.9c1.8-5.4,4.4-10.7,7.2-15.6
			c3.5-6.2,6.9-12.6,12.7-17.1c5.6-4.4,11.5-8.5,17.2-12.8c4.9-3.7,10.6-6,16.5-7.3c8.2-1.9,16.5-3.2,24.8-4.4
			c7.8-1,15.7-1.6,23.3,2c2.3,1.1,5.1,1.3,7.7,1.9c4.2,1,8.5,2,12.9,3C984.5,643,985.9,644.1,987.9,644.9z"/>
		<path class="st1" d="M973.9,646.3c-1.7,2.8-3.4,5.5-5.1,8.3c-1.3-1.4-2.5-2.8-4.3-4.8C967.8,648.2,969.8,645,973.9,646.3z
			 M964.3,643.3c-2.3-0.4-4.4-0.8-7.2-1.2C961.3,647.2,961.9,647.3,964.3,643.3z M950.6,683.2c-0.2-1-1.3-1.8-2-2.7
			c-0.4,0.2-0.7,0.3-1.1,0.5c1.2,4.7,2.5,9.4,3.7,14.1c0.2,0,0.5-0.1,0.7-0.1C951.6,691,951.2,687.1,950.6,683.2z M968.3,689
			c-2-1.1-4.2-1.5-7-2.4c1,5.5,1.9,10.3,2.9,15.7c2.1-2,3.9-3.4,5.4-5.1C972.1,694.5,971.6,690.8,968.3,689z M901.9,669.6
			c1.5-6.6,3.5-12.8,7.3-18.3C903,653.5,900.8,659.4,901.9,669.6z M915.3,661.7c-0.1-2-0.2-4-0.3-6.7c-2.2,1.7-2.3,3.8-2.5,5.7
			c-0.1,1.2-0.2,2.1-1.2,3.2c-2.3,2.7-1.9,5.8,0.6,8.8c-2.9,6-1.2,12.2-0.8,18.9c4.5-2.4,5.3-6.4,5.2-10.4
			C916.3,674.7,915.7,668.2,915.3,661.7z M923.4,677.6c0-6.6,0.2-13.2,0.4-20.3c-1.7,0.3-3.2,0.6-4.6,0.9c0.2,7.4,0.5,14.6,0.7,22.3
			C921.9,680.2,923.4,680.1,923.4,677.6z M941.4,647.4c0.7-1.4,1.5-2.9,2.2-4.3c-0.4-0.2-0.9-0.4-1.3-0.6
			C941.2,643.9,940.2,645.2,941.4,647.4z M932.7,648.9c-2.3,3-3.7,5-3.3,7.9c0.2,1.7-0.5,3.6-1,5.3c-0.4,1.5,1.7,3.7-1.2,4.6
			c-0.1,0-0.2,1,0,1.3c2.2,4.6-0.7,9.2,0.2,14.2c2.4,1.5,5,3.3,8.8,5.7C934.1,674.7,931.9,662.5,932.7,648.9z M929.5,784.3
			c-1.8-3.7-3.6-7.3-5.8-11.6C921.2,780.4,923,783.8,929.5,784.3z M902.6,696.4c-0.2-3.3-0.4-5.7-0.6-8.8
			C899.2,692.1,899.2,692.1,902.6,696.4z M960.5,676.5c2.6,1.1,5.1,2.2,8.4,3.7c-0.4-5.2-0.7-9.5-1.1-14.9
			C964.5,669.2,959.4,670.3,960.5,676.5z M896.5,669.2c-1-1.1-0.8-3.4-1.1-5.1c-2.2,1.3-4.6,2.4-6.7,3.9c-2.6,1.8-2.4,5.7,0.6,7.4
			c2.4,1.4,5.1,2.2,7.8,3.1c2.3,0.8,4.6,3,7.1-0.1c1.5,10.3,2.9,19.8,4.4,29.6c-2.8,0.7-4.1-0.1-4.4-2.8c-0.2-1.6-0.7-3.1-1.1-4.7
			c-0.4,0.1-0.7,0.1-1.1,0.2c0.2,1.9,0.5,3.9,0.7,5.7c-4.7,0.5-5.1,0.1-7.2-8c-0.7,0.7-1.4,1.2-1.9,1.8c-1,1.5-1.9,3.1-2.9,4.6
			c-1.8,2.7-1.1,5.5,1.8,6.9c3.1,1.4,6.2,3,9.5,3.7c2.4,0.5,5.1-0.2,8.2-0.5c2.2,8.9,3.5,18.7,8.3,27.4c4.6,8.4,9.1,16.9,13.7,25.3
			c0.4-0.2,0.7-0.3,1.1-0.5c-0.4-1-0.8-2-1.3-2.9c-5.5-9.1-8.9-18.9-11.9-29.1c-2.6-8.6-5.2-17.2-7.2-25.9
			c-2.7-11.5-5.5-22.9-6.1-34.8c0-0.4-0.2-0.9-0.5-1.9c-0.6,1.1-0.9,1.8-1.6,3C901.8,673.6,898.8,671.7,896.5,669.2z M903.9,755.6
			c-1.1-1.5-2-2.7-3.2-4.4C900.3,755.5,900.3,755.5,903.9,755.6z M903.2,746.8c1.5,2.5,2.7,5.2,3.9,7.8c1.2,2.8,3.3,3.9,7.3,3.7
			c-1.6-2.3-1.3-4.8-3.9-5.6c-0.3-0.1-0.7-0.8-0.7-1.1c0.9-6-4.5-9.8-5.2-15.3C902.6,739.7,900.7,742.9,903.2,746.8z M887.5,691
			c2.2-1.2,2.9-3.3,4-5.7c-1.5-0.7-2.9-1.3-5-2.2C886.9,686.2,887.2,688.5,887.5,691z M887.9,667.3c0.9-1.2,1.6-2.1,2.4-3
			c-0.5-0.2-0.8-0.4-0.9-0.4C888.5,664.7,887,665.2,887.9,667.3z M878.9,683.2c-0.3,7.3,0.1,14.5,2,22.6c2.2-3.8,3.6-6.6,2.8-10.3
			c-0.9-4.5-1-9.2-1.8-13.8c-0.3-1.8-1.7-3.4-2.5-5.1c-0.3,0.1-0.7,0.2-1,0.3c-0.1,0.6-0.5,1.4-0.3,1.6
			C879.7,680,881.6,681.1,878.9,683.2z M936.2,717.5c-2.1,3.5-5.7-0.8-7.4,3c-2.7-5.4-3.7-10.5-4.2-15.4c2-0.5,3.6-0.9,4.9-1.2
			C931.7,708.5,934,713,936.2,717.5z M929.3,714.3c0.4-0.1,0.9-0.3,1.3-0.4c-0.6-1.6-1.3-3.2-1.9-4.8c-0.1,0-0.2,0-0.3,0
			C928.7,710.9,929,712.6,929.3,714.3z M919.9,700.9c-0.1-0.9-0.9-1.7-1.7-3.1c-0.3,5.2,5,25.4,7.6,29.5c1.3-1.6,1.2-3.1,0.5-4.6
			C923.5,715.6,921.1,708.4,919.9,700.9z M896.4,729.9c1.4-1.8,2.7-3.4,4.5-5.7c-2.5-0.6-4.3-1.1-6.2-1.6
			C893.3,725.7,894.9,727.6,896.4,729.9z M917.7,705.1c-1-3.7-1.9-7.4-4.1-10.6c-0.2-0.3-0.7-0.4-1.4-0.8c2.3,12.8,8,24.5,8.4,38.2
			c3.1-2.7,2.7-5,2-7.5C921,718,919.4,711.5,917.7,705.1z M917.6,648c1.6-0.4,2.6-0.6,3.7-0.9c-0.3-0.9-0.5-1.6-0.8-2.8
			C919.6,645.5,918.8,646.5,917.6,648z M926.7,769.6c3.2,3.8,5.9,7.9,7.7,12.6c1,2.7,3,5,6.4,5.8c0.2-0.7,0.6-1.4,0.4-1.8
			c-0.4-1-1-2-1.7-2.7c-4.2-4.4-7.2-9.6-10-14.9c-0.5-0.9-1.4-1.6-2.1-2.3C925.8,767.4,925.7,768.5,926.7,769.6z M891.7,750.9
			c0.7-3.7,1.4-7.5,2.2-11.2c0.7-3.2-1.1-5.7-1.8-8.5c-0.8-3.1-2.1-6.1-3.2-9.2c-0.9-2.7-0.9-2.7-5-3.5
			C883.8,727.3,888.3,745.9,891.7,750.9z M909.9,786.8c-1.7-4.3-3.5-8.5-6.1-12.3c-0.4-0.6-0.6-1.2-1.1-1.8
			c-1.8-2.4-3.6-4.8-5.4-7.2c0.3-0.4,0.6-0.9,0.9-1.3c1.4,0.5,3,0.6,4,1.5c1.6,1.5,2.5-0.6,4.2-0.2c6.7,1.8,11,8.8,8.3,15.3
			c-0.9,2.3-2.6,4.3-4,6.4C910.4,787.1,910,787,909.9,786.8z M904.7,769.1c1.2,4.5,3.7,8.1,6.3,11.8
			C910.4,776.1,908.1,772.3,904.7,769.1z M916.5,752c1.2,2.8,3.1,5.3,4.8,7.8c0.3,0.4,1.3,0.4,3.1,0.9
			c-6.9-11.6-13.1-22.2-15.3-35.2c-2.2,2.4-1.8,4.2-1,6C910.9,738.3,913.5,745.2,916.5,752z M895.6,798.2c-0.7-1.2-1.4-2.4-2.1-3.6
			c-0.3,0.4-0.6,0.8-0.9,1.2c3.4,7.9,11.2,11.3,16.6,17.2c0.3-0.2,0.5-0.4,0.8-0.6c-0.9-2-1.9-4-2.8-6c0.6,0.4,1.2,0.8,2.1,1.3
			c0-2.7-0.6-4.6-3.5-5.5c-0.1,1-0.2,1.9-0.3,2.7c-4.6-5.4-9.1-10.9-12.3-17.2c-1.7-3.4-4.4-6.4-6.2-9.8
			c-3.6-6.7-7.4-13.3-10.1-20.3c-2.9-7.3-4.9-15.1-6.6-22.8c-1.7-7.5-2.6-15.2-4.1-23.8c-0.3,4.7-0.7,8.6-0.9,12.5
			c-0.1,2.5-0.2,4.9-0.2,7.4c0,1.6-1.2,3.8,1.9,4.2c0.4,0.1,0.7,2.7,0.6,2.7c-2.4,0.9-1,2.7-0.4,3.3c2.6,2.8,2.8,6.5,3.9,9.8
			c2.9,9.3,7.1,17.8,12.4,25.9c4.1,6.2,8.2,12.4,12.3,18.6c0.3,0.5,0.5,1,0.8,1.5C896.2,797.4,895.9,797.8,895.6,798.2z
			 M870.2,756.2c-0.2-1-0.4-2-0.5-3c-0.1,0-0.2,0.1-0.3,0.1c0.2,1,0.4,1.9,0.5,2.9C870,756.2,870.1,756.2,870.2,756.2z M880,794
			c0.3-0.2,0.7-0.4,1-0.7c-3.1-4.5-6.1-9-9.2-13.5c-0.3,0.2-0.5,0.4-0.8,0.6C873.6,785.1,875.6,790.4,880,794z M773,816.5
			c-0.4,0.1-0.9,0.2-1.3,0.4c0.6,1.3,1.1,2.6,1.7,3.8c0.2-0.1,0.4-0.1,0.7-0.2C773.6,819.1,773.3,817.8,773,816.5z M916.1,819.6
			C916.1,819.5,916.1,819.5,916.1,819.6c-0.1,0-0.1,0.1-0.1,0.2c0.1,0,0.1,0,0.2-0.1C916.2,819.6,916.2,819.6,916.1,819.6z
			 M912.7,811.6c-0.7,3.6,0.8,6,3.3,7.9C916.3,816.4,915.7,813.7,912.7,811.6z M960.6,707.6c0.5-1,1.2-1.7,1.1-2.3
			c-1.6-6.8-3.2-13.5-5-20.3c-0.1-0.3-0.8-0.4-1.6-0.7c0.2,7.2,0.9,14.2,3,20.9C958.3,706.1,959.5,706.7,960.6,707.6z M884.8,784.4
			c-0.2,0.1-0.3,0.2-0.5,0.3c0.6,1.3,1.2,2.5,1.9,3.8c0.3-0.2,0.7-0.4,1-0.6C886.3,786.7,885.5,785.5,884.8,784.4z M870.9,784.9
			c-1.6-3.5-3.3-7.1-5.1-10.9C865.2,777.9,866.8,781.5,870.9,784.9z M748.4,862.2c3.3,4.3,3.8,4.2,8.9,1.1c-1.1-1.4-2.3-2.8-3.6-4.4
			c1.9-1.2,3.3-1.3,4.8,0.2c1.4,1.4,2.9,3.3,4.5,3.5c1.7,0.2,3.6-1.5,5.4-2.4c0.3-0.1,0.5-0.3,1-0.7c-0.7-1.2-1.5-2.5-2.6-4.3
			c1.5,0.4,2.6,0.3,3.3,0.8c3.4,2.6,3.4,2.6,6.6,0.2c0.5-0.4,0.9-0.8,1.4-1.2c0.5-1.3-2.8-2.4,0.2-4c0.9,0.8,1.9,1.7,3.2,2.8
			c2.6-1.6,5.3-3.2,8-4.8c-0.5-1.6-0.9-2.7-1.3-3.9c0.8-0.2,1.2-0.5,1.3-0.4c2.6,2.8,5.1,1.9,7.7-0.1c1.1-0.8,2.2-1.6,3.6-2.7
			c-0.7-0.9-1.4-1.6-2.1-2.5c2-3.3,3.2,0.4,5,0.6c1.5-1.3,4.8-1.6,2.8-5.3c-0.2-0.3,1.2-1.5,2.5-2.9c1,1.3,1.8,2.4,2.8,3.8
			c3.2-2.6,5.7-4.7,8.5-6.9c-1.1-0.5-1.7-0.8-2.6-1.3c0.8-0.8,1.5-1.6,2.3-2.4c1.2,0.9,2.3,1.7,3.5,2.5c2.1-1.3,4.1-2.4,6.4-3.8
			c-0.7-1.2-1.3-2.1-2.2-3.6c3.3,1.4,2.2-2.2,4.3-2.7c1.8,0.6,3.9,3.6,6,0.7c1.2-1.7,1.6-4,2.4-6.3c1.6,1,2.8,1.7,4,2.5
			c3.5-2.5,3.5-2.5,2.8-5.9c-0.2-0.7-0.2-1.5-0.2-2.2c0-0.3,0.3-0.5,0.6-1c1.5,1.6,3.1,3.2,4.8,5.1c1.6-1.4,2.9-2.6,4.2-3.8
			c0-0.3,0.2-0.7,0-0.9c-3.3-4.4-6.6-8.8-9.9-13.3c-2.5,0.4-2.6-1.5-2.7-3.3c-3.1,1.7-2.9,3.7,1.3,13.1c-2.8,1.5-4.5,0.2-6.1-2
			c-1.7-2.5-3.7-4.8-6.1-7.8c-0.9,3.1-0.1,5.5,1.4,6.8c2,1.8,2.1,3.9,2.7,6.3c-4.4,2.4-4.4,2.4-7.3-0.8c-1.9-2.1-3.7-4.2-5.5-6.3
			c-1.2-1.4-2.6-1.7-4.1-0.7c-1.6,1.1-0.9,2.5-0.3,3.7c1.5,2.7,3.1,5.3,4.8,8.2c-1.3,0.9-2.4,1.6-3.4,2.2c-5-2.1-7.6-6.4-10.9-11.2
			c-1.6,6.5,1.2,11.2,2.5,16c-3.1,3.1-3.5,3.2-5.7,0.3c-1.9-2.5-3.4-5.1-5-7.8c-0.8-1.3-1.5-2.7-2.2-4c-3.8,1.9-4.1,1.9-3.1,5.1
			c1.1,3.5,2.7,6.9,4.1,10.3c1.2,2.9,1.2,2.9-2.2,5.1c-4.4-4.9-7.1-11-11.1-17.7c-0.6,2-1.2,3-1,3.7c1.5,4.4,3.1,8.7,4.7,13.1
			c0.5,1.3,1.3,2.4,2.1,3.9c-1,0.6-1.9,1.1-3.3,2c-4.3-5.9-8.5-11.7-12.7-17.4c-3.3,8.4,2.9,14,5.4,20.9c-1,0.6-2,1.2-3.5,2.2
			c-4.1-5.8-8.1-11.5-12.3-17.5c-0.5,0.1-1.5,0.4-2.7,0.6c-0.5,7.6,3.5,13.9,6.5,20.7c-1.5,0.6-2.7,1.1-4,1.6
			c-4.9-5.9-7.6-12.6-11-19.1c-2.8,3.1-2.8,6.2-0.9,9.6c1.9,3.4,3.5,6.9,5.3,10.6c-2,1.3-3.3,1.1-4.8-1.1c-2.6-3.9-5.7-7.6-9.2-12.2
			c-0.9,5.3,1.1,9.3,1.4,13.7c-1.6,0-2.9,0-4.7,0c-1.4-3.2-2.9-6.3-4.4-9.7c-1.6,1.2-1.5,2.7-1.3,4.4c0.5,3.7,1.4,7.2,0.7,11.1
			c-0.2,1.4,0.8,3.6,1.9,4.4C743.5,855.9,745.9,858.9,748.4,862.2z M976.7,717c-1-3.4-1.8-6.2-3-10.1c-2.5,2.8-4.3,4.6-6.1,6.6
			C969.9,717,973.2,716.1,976.7,717z M730.9,842c-1.7,1.9-1.7,4.1,0,6.4c3.4,4.6,6.6,9.3,10,13.9c0.7,0.9,1.9,1.4,3.1,2.3
			C739.4,856.7,735.1,849.3,730.9,842z M861.5,791.3c4.3,6.7,10.3,10.5,18.5,10c0.7,0,1.4-0.4,2.4-1.4c-1-0.4-2-1.1-3-1.1
			c-4.2,0-7.5-1.9-10.1-4.9c-3-3.5-5.5-7.4-8.2-11.1C859.2,785.7,859.8,788.6,861.5,791.3z M857.7,783.9c1.2-0.4,2.4-0.8,3.5-1.1
			c-0.5-2.7-1-5.4-1.6-8.4C857.3,776.9,857.1,778.1,857.7,783.9z M861.2,782.8C861.2,782.8,861.2,782.8,861.2,782.8
			c0,0,0.1-0.1,0.1-0.1C861.3,782.7,861.2,782.7,861.2,782.8C861.2,782.8,861.2,782.8,861.2,782.8z M916.2,819.7
			c8.1,7.8,18.5,10.4,28.6,13.6c0.2-0.4,0.4-0.8,0.6-1.2c-4.7-2.9-9.3-6-14.2-8.6c-1.2-0.6-3.4,0.7-5.4,1.1c-0.6-1.6-1.2-3.3-2-5.7
			c-0.5,1.2-0.7,1.7-1.1,2.5C921,819.2,918.7,818.7,916.2,819.7z M947.8,723.2C947.8,723.2,947.8,723.2,947.8,723.2
			c0.1,0,0.1-0.1,0.1-0.1C947.8,723.1,947.8,723.1,947.8,723.2C947.8,723.2,947.8,723.2,947.8,723.2z M947.8,723.1
			c-0.7-1.8-1.1-3.8-2-5.5c-3.9-7.1-6.3-14.7-8-22.6c-0.2-1-0.6-1.9-1.2-3.7c-2.2,2.9-3.9,5.1-5.8,7.7c1.6,2.9,3,6,4.9,8.8
			c1.5,2.4,2.7,4.7,3.1,7.5c0.2,1.7,1.3,3.4,2,5.1C943.6,719.7,944.6,724.3,947.8,723.1z M1022.7,696.1c1.9,3.7,3.8,7.5,5.8,11.2
			C1028.3,702.7,1026.5,698.8,1022.7,696.1z M977.3,832.9c-2.3-0.1-4.2-0.2-6.4-0.3C973,835.7,973,835.7,977.3,832.9z M990.8,670.9
			c0.5-2.8,1.9-5.2,4.8-6.5c0.6-0.3,1.2-0.8,1.9-1.4c-4.7-1.6-9.2,0.1-10.1,4.5c-1,4.6-1.4,9.5-1.2,14.2c0.4,9.1,3.7,17.6,7.4,25.8
			c3.3,7.5,7,14.8,10.6,22.2c0.5,0.9,1.2,1.8,1.8,2.7c0.2-0.2,0.3-0.3,0.5-0.5c-2.2-4.6-4.7-9-6.5-13.7c-3.8-10.6-7.6-21.3-9.5-32.6
			C989.6,680.7,989.8,675.7,990.8,670.9z M975.5,666.7c1.3-5.8,3.7-11.1,7.6-16c-3.8-2.1-6.6-1.1-8.1,2.9c-0.9,2.4-1.9,5-2,7.6
			c-0.3,6.7-0.2,13.5,0,20.2c0,1,0.9,2,2,2.9C975.3,678.4,974.1,672.5,975.5,666.7z M943.1,695c0,0-0.1-0.1-0.1-0.1c0,0,0,0,0,0
			L943.1,695C943.1,695,943.1,695,943.1,695z M938.1,822.9C938.1,822.8,938.1,822.8,938.1,822.9
			C938.1,822.8,938.1,822.8,938.1,822.9C938.1,822.9,938.1,822.9,938.1,822.9z M1011.6,747.6c-0.1,0-0.1-0.1-0.2-0.1c0,0,0,0,0,0
			L1011.6,747.6z M979.5,714.8c0.6,2.3,2.1,3.1,4.6,3.9c-2-5.6-3.7-10.7-5.5-15.7c-3.1,1.7-3.1,1.9-1.8,4.9
			C977.9,710.1,978.9,712.4,979.5,714.8z M938.1,822.9C938.1,822.9,938.1,822.9,938.1,822.9c1.8,1.2,3.5,2.4,5.2,3.6
			c0.1,0.1,0.2,0.3,0.3,0.4c3.3,1.2,6.6,2.4,10.1,3.6C949.7,824.2,944.4,821.7,938.1,822.9C938.1,822.8,938.1,822.8,938.1,822.9
			L938.1,822.9c-3.1-1.9-6.1-3.9-9.2-5.8c-0.1,0.1-0.2,0.2-0.3,0.3c0.9,1.2,1.9,2.5,2.8,3.7c-0.2,0.2-0.4,0.5-0.6,0.7
			c-0.5-0.5-1-1.1-1.5-1.6c-13.4-12.1-23.5-26.8-32.8-42c-7-11.4-12.9-23.4-16.6-36.3c-0.2-0.6-0.9-1-2.2-2.2
			c0.6,3.4,1.1,5.8,1.5,8.1c-2-4.8-3.6-9.6-4.9-14.5c-0.9-3.4-1.5-6.9-2-10.4c-0.6-4.1-0.2-8.6-1.6-12.3c-1.4-3.5,0.9-6.2,0.7-9.3
			c-0.1-1.6,1.3-3.3,2-5c1-2.2,0.3-3.7-2-4.3c0.8-3.2,1.5-5.9,3.9-8.4c0.2,3.5,0.1,6.5,0.5,9.4c1.1,8.7,2.8,17.4,3.6,26.1
			c1.1,12.6,5.4,24.1,9.6,35.9c2.7,7.4,6.8,13.9,10.8,20.5c4.5,7.4,9.1,14.8,13.6,22.2c1.4,2.3,3,2.7,6.2,1.8
			c-1.8-2-3.1-3.5-4.5-5.1c2-1.1,3.6-1.3,4.8,0.9c0.6,1,1.6,1.8,2.4,2.7c0.2-0.2,0.3-0.3,0.5-0.5c-0.5-1.3-1-2.7-1.5-4.1
			c4.1,0.1,4.1,0.2,8.2,2.7c0.7,0.4,2.2,0.5,2.5,0.1c1.4-1.9,3.3-1.1,5-1.5c4.4-0.8,8.7-1.7,13.6-2.7c-5-6.5-9.5-12.4-14.1-18.3
			c0.4-0.3,0.7-0.6,1.1-0.8c2.4,2.9,4.7,5.9,7.1,8.8c2.5,3,4.9,6,7.5,8.8c1.1,1.1,2.2,0.9,2.7-0.8c-2.4-2.2-4.8-4.4-7.3-6.6
			c0.2-1.1,0.4-2.3,0.5-2.8c-1.7-1.1-3.1-1.8-4.3-2.7c-3.6-2.8-5.4-6.9-7.8-10.6c-1.3-2.1-3.3-4.1-3.7-6.4c-0.5-3-2.1-5.3-3.4-7.9
			c-2.6-4.7-4.5-9.7-4.7-15.3c2.7,0.6,2.7,0.6,3.1,1.7c2.5,8.2,5.2,16.2,9.6,23.5c0.6,1,0.5,2.5,0.8,4.1c2.5,1.8,3.4,2.2,5,2.3
			c0,0,0,0.1,0,0.1c0,0,0,0,0,0c0,0,0,0,0,0c0.1,3.2,3,4.8,4.6,7c3,4,7.1,7.5,9.2,11.9c1.3,2.6,2.1,1.5,3.7,1
			c-3.1-3.9-6.3-7.7-9.4-11.6c0.2-0.2,0.3-0.5,0.5-0.7c2.3,0.8,4.7,1.5,7,2.3c0,0.1-0.1,0.1-0.1,0.1l0.1-0.1l-0.1,0.1
			c0.1,0.1,0.2,0.2,0.4,0.3c1.2,2,2.4,4,3.6,5.9c0.5,0.8,1.1,1.4,1.9,2.3c0.8-0.6,1.5-1.1,2.8-2c-3-2.3-5.6-4.3-8.2-6.3
			c-0.1-0.1-0.2-0.3-0.2-0.4c0,0,0,0,0,0c1.6-2.5,2.6-2.5,6.8-0.2c0.3-1.8,0.6-3.5,1.1-6.1c-3.4,0.6-6.1,1.1-8.7,1.6
			c-6,1.2-10.7-1.3-14.9-5.2c0-0.1,0-0.1,0-0.2c0,0,0,0,0,0.1l0,0c0,0,0,0-0.1,0c-4.9-9.6-10.3-18.9-13.2-29.7
			c0.9-0.3,1.7-0.6,2.7-0.9c3.4,6.9,6.8,13.6,10.2,20.4c0.6-0.5,1.1-0.7,1.1-0.8c-1.7-6.8-5.9-12.4-8.7-18.9c4.7,0,6.8,3.2,7.4,6.5
			c0.6,3.4,2.6,5.6,4.6,8c-0.6-2.2-1.5-4.1-2.5-6.1c-1-2.1-1.9-4.2-3.1-6.6c3,0.2,2.4-2.5,3.2-5c1.9,3.4,3.4,6.3,5.1,9
			c1.6,2.5,2.1,6.1,6.3,7.4c-0.5-1.4-0.6-2.3-1-3.1c-2.2-4-4.5-7.9-6.8-11.8c-0.1-0.3-0.4-0.4-0.7-0.6c-2.7-2.1-2.5-4.6-1.2-7.5
			c0.9-1.9,1.3-4,1.9-6c0.5,0.7,1.2,1.3,1.6,2c4.3,7.5,8.5,15.1,12.8,22.6c1,1.8,2.1,2.7,4.2,0.4c-0.8-1.8-1.5-3.8-2.6-5.6
			c-2.8-4.6-6-8.9-8.6-13.6c-5.2-9.5-9.4-19.4-12.6-29.7c-0.4-1.3,0.3-2.9,0.4-4.4c0,0,0.1,0.1,0.1,0.1l0,0l0,0c0,0,0,0,0,0
			c0-0.1,0-0.2-0.1-0.3c0.2-1.2,0.5-2.5,0.7-3.7c-0.4,0-0.9,0-1.3-0.1c0.2,1.2,0.4,2.5,0.6,3.7c0,0.1,0,0.2,0,0.2
			c-2.2-2-2.5-4.8-2.9-7.4c-0.8-5.5-1.3-11-2.1-16.4c-0.4-2.8-0.6-5.4-0.3-8.2c0.3-2.6-0.1-5.2,0-7.8c0.1-2,0.6-4.1,0.9-6.6
			c2.7,2.7,3,3.9,2.2,7.5c-0.7,3.1,0.5,5.9,0.5,9c2.5-0.5,3.2-1.9,3.3-3.8c0.1-2.2,0-4.4,0.3-6.5c0.4-3.3-0.2-6.8,1.7-9.8
			c2.7,0.6,3,2,2.3,4.2c-0.9,2.9-1.5,5.9-0.9,9.1c3.9-1.1,4.3-1.5,7.2-9c1.3,2.2,2.2,4,3.4,5.7c1.3,1.9,1.3,3.7,0,5.6
			c-4.3,6-7.6,12.9-15.4,15.5c1.2,5.2,2.2,10,3.6,14.8c2.1,7.3,5,14.4,6.7,21.8c1,4.5,2.2,8.5,5.2,12.1c2.1,2.6,3.2,6,5,8.9
			c2.5,4.1,5.1,8.1,7.6,12.1c3.1-1.9,3-2,1.6-5.1c-2.5-5.4-4.9-10.9-7.2-16.3c-0.2-0.4,0-0.8,0-1.4c3.1,0,4.2,2.6,4.8,4.5
			c1.6,5,5.3,8.8,7.2,14.3c2.9-2.7,5.4-4.9,7.8-7.3c2.7-2.6,5.8-4.2,10-3.4c-1.2-3.3-1.4-6.1-3.5-8.5c-1.2-1.3-1.2-3.7-1.5-5.7
			c-0.3-2.1-2.8-2.3-3.3-4.7c-0.9-3.7-1.5-7.8-3.9-11.1c-1.2-1.6-2.2-3.8-1.2-6.1c0.3-0.7-0.1-1.8-0.3-2.7c-0.3-1.8-0.9-3.5-1-5.3
			c-0.3-4.6,0-9.3-0.5-13.9c-0.7-5.6,1.5-10.3,3.6-15.1c0.5-1,1.5-1.8,2.5-2.9c1.6,1.3,2.8,2.3,4.4,3.5c-1.4,1.1-2.3,2-3.3,2.6
			c-2.2,1.3-3.4,3.3-3.8,5.6c-1.2,6.9-1.4,13.9-0.2,20.8c1.2,6.5,3.8,12.4,6,18.5c3.6,10,8,19.5,13.6,28.4c2.7,4.4,5.8,8.6,8.7,12.9
			c0,0,0,0-0.1,0.1c-3-2.1-6-4.3-9.4-6.7c-1.4,6.2-6,10.3-11,15.6c5-0.7,7.1,1.6,8.5,4.3c3.2,0.3,3.7-1.2,3-4
			c0.9,0.3,1.6,0.3,1.9,0.6c1.7,1.6,3.2,0.9,4.1-0.7c1.6-2.8,3.3-5.6,2.8-9.1c0,0,0.2,0.1,0.2,0.1c0-0.1-0.1-0.1-0.1-0.2
			c0.8-1,2.3-2.2,2.2-3.1c-0.6-3.1-1.4-6.2-2.8-8.9c-2.4-4.6-4.5-9.4-6.1-14.3c-3.2-9.6-5.8-19.3-8.6-29c-1.8-6.4-2.2-12.9-0.7-19.5
			c1.1-4.8,3.7-5.8,8-2.4c-5,6.6-4.7,13.9-3.4,21.7c2.1,12.6,6.6,24.2,11.6,35.8c1.3,3,3.3,5.7,5.2,8.9c1.7-3.3,1.1-5.5-0.2-8.1
			c-2.7-5.5-5.2-11.2-7.1-17.1c-2.2-6.9-3.8-14-5.3-21.1c-0.8-3.7-1-7.6,0.4-11.8c0.7,4.7,0.6,9.1,1.9,13c3.7,11.2,7.9,22.2,12,33.2
			c0.3,0.9,1.1,1.6,1.9,2.7c0.7-5,0.3-7.3-1.1-10.9c-2.6-6.6-5.4-13.1-7.4-19.9c-1-3.4-1.8-7-2.6-10.5c-0.6-2.8-1.3-5.8,0.8-8.5
			c2.5,1.3,3,2.9,2.4,5.8c-0.6,2.8-1,6.1,0,8.7c2.6,6.8,6,13.2,9.2,19.8c0.3,0.6,1.2,0.9,1.9,1.3c0.1-1.9-0.4-3.3-0.9-4.7
			c-2.2-5.9-4.5-11.8-6.7-17.7c-0.6-1.6-1-3.4,0.9-5c1.1,3,1.9,5.9,3.1,8.5c2.8,6.2,5.7,12.4,8.8,18.5c1,2.1,1.3,5,4.4,5.5
			c0.3,0.1,0.7,1.1,0.7,1.6c0,3.7,3.3,6.9,1.5,10.8c-0.2,0.4,0,1.1,0.2,1.3c3.4,3.1,2.4,7.5,3.4,11.2c0.9,3.1,1.2,6.4-0.6,9.5
			c-0.5,0.8-0.4,2.2-0.1,3.2c1.6,4.8,0.2,8.8-2.6,12.6c-0.5,0.6-1.2,1.5-1,2c1.5,3.6-1.6,5.9-2.3,8.9c-0.2,0.6-0.9,1.1-1.4,1.6
			c-1.5-1.6-1.9,0.2-2.3,0.9c-1.7,2.9-3.3,6-5,9.2c2.1,1.5,3.3,3.2,1.7,5.5c-1.2,1.8-1.5,4.3-4.1,5.6c-0.3-1.8,0.5-3.8-1.7-4.4
			c-2.6-0.7-4.5,0.1-5.9,2.3c1.5,2.6,5.7,1.7,6.7,4.7c-2.1,0.1-4.1,0.2-6.1,0.3c-1.5,0.1-3.2,0.6-4.6,0.2c-2.8-0.8-4.8,0.2-6.6,2.2
			c-0.2,0.2-0.1,0.5-0.2,1c1,0.8,2,1.7,3.3,2.7c-0.5,1.4-0.9,2.6-1.3,3.7c-3.5-2-7.4-0.8-10.5-2.8c-0.2-0.1-1.1,0.8-1.9,1.4
			c3.9,2,7.4,3.9,11.5,6.1c-1.3,0.6-2,1.1-2.8,1.2c-4.3,0.3-8.4-0.8-12.1-2.8c-2.8-1.5-5.1-1.4-7.9,0.6c1.1,0.6,1.9,1.3,2.8,1.6
			c2.6,1,5.3,1.9,7.9,2.8c1.8,0.7,2.5,2.4,1.6,3.7c-1.1,1.5-2.4,3.3-4.9,2.9c-2-0.3-4-0.2-6-0.4c-3.2-0.2-6.4-0.5-10.1-0.9
			c1.1-2.1,1.9-3.6,2.6-5c-4.2-3.9-7.5-4.1-9.7-0.9c-1.3-0.4-2.7-1.3-3.7-1c-2.6,0.8-5.1,1.4-7.8,0.9c-0.3-0.1-0.8,0.3-1.1,0.5
			c1.4,2.1,3.2,4,4,6.2c0.9,2.5,1.8,4.1,4.8,3.9c1.9-0.2,3.4,1,4.7,3c-5.7,0.5-11.1,0.5-15.8-2C945.7,831.1,941.1,827.8,938.1,822.9
			z M877.8,735c-0.2,0-0.4,0-0.5,0c0,0.8-0.1,1.6-0.1,2.4c0.3,0,0.6,0,1,0.1C878,736.6,877.9,735.8,877.8,735z M968.2,784.5
			c0.4-0.3,0.7-0.5,1.1-0.8c-0.7-1-1.5-2-2.2-3c-0.3,0.2-0.5,0.3-0.8,0.5C966.9,782.4,967.6,783.5,968.2,784.5z M967.8,773.1
			c2,2.7,4.1,5.5,6.5,8.7c1.8-1.4,3.3-2.6,4.9-3.8c-0.3-0.7-0.5-1.4-0.7-1.4c-3.4,0.1-5.4-2.1-7.5-4.3
			C969.8,771.1,968.8,771.3,967.8,773.1z M975.4,768.2c1.9,2.2,3.4,4.2,5.1,6c1.3,1.3,1.4,1.2,3.8-0.3
			C978.5,766.7,978.5,766.7,975.4,768.2z M985.8,760.5c-0.8,0.6-1.3,1-1.7,1.4c-0.3,0.3-0.6,0.7-0.8,1c0.1,0.3,0.1,0.7,0.2,0.9
			c1.4,1.4,2.8,2.8,4.2,4.3c1.7,1.8,3.1,1.7,4.5-0.7C990.2,765.3,988.2,763.1,985.8,760.5z M989.5,758.6c1.6,2.4,3.2,4.7,5.4,7.9
			C994.4,762.5,992.7,760,989.5,758.6z M972.3,724.7c2,4.5,4,8.8,6.1,13.4c2.5-2.8,3.9-5.4,2.9-8.9
			C979.9,724.6,976.3,724.7,972.3,724.7z M942.5,769.1C942.5,769.1,942.5,769.1,942.5,769.1L942.5,769.1L942.5,769.1z"/>
	</g>
	<g>
		<path class="st0" d="M327.1,880.4c-0.7-1.9-1.3-3.9-1.2-5.8c0.2-6,0.5-12,1.2-18c0.7-6.6,2.1-13.2,2.7-19.8
			c0.9-8.3,3.6-16.1,7.1-23.5c5-10.4,12-19.8,18.4-29.5c0.3-0.4,0.6-0.7,0.9-1.1c4.7-4.7,9.6-9.2,14.2-14
			c7.1-7.4,15.9-11.6,25.7-14.1c1.5-0.4,3.1-0.4,4.6-0.9c6.8-2.1,13.6-4.3,20.4-6.4c4.7-1.5,9.4-1.8,14.3-1.5
			c14.6,1,28.2,5.4,41.2,12.1c11.2,5.8,21.4,12.6,27.1,24.6c2,4.2,4.3,8.2,6.1,12.5c1.5,3.5,2.3,7.4,3.6,11
			c3.3,9.3,5.9,18.6,4.2,28.7c-0.7,4.3-0.8,8.6-1.3,12.9c-0.4,3.6,0.9,6.3,3.7,8.5c1.9,1.5,3.6,3.4,5.5,5.1c1.9,1.7,3.7,3.8,6,5
			c5.5,2.8,11.1,5.5,16.8,7.7c8.8,3.4,17.7,6.4,26.6,9.5c7.3,2.5,14.6,4.8,21.9,7.2c3.1,1,6,2.9,9.1,3.2c7.7,0.8,14.6,4.1,21.8,6.4
			c4.1,1.3,8.3,2.6,11.9,4.9c5.4,3.3,10.5,7.1,15.2,11.4c4.8,4.4,8.2,9.9,7.8,16.8c-0.3,6-2.9,11.6-4.8,17.2
			c-0.2,0.5-0.8,0.9-1.2,1.5c-3.7,5.6-9,8.9-15.1,11.1c-2.4,0.9-5.1,1.4-7.7,1.4c-8.9,0-17-3-24.7-7.3
			c-12.2-6.8-24.5-13.5-36.7-20.2c-2.7-1.5-5.6-2.8-8.2-4.3c-6.4-3.8-12.8-7.6-19.1-11.6c-7.9-5-15.6-10.1-23.3-15.3
			c-1.4-1-2.5-1.4-4.2-0.6c-1,0.5-2.7,0.9-3.4,0.4c-1.3-0.9-2.2-0.7-3.3-0.1c-4.3,2.2-8.7,2-13,0c-0.8-0.4-1.7-0.6-2.9-1
			c-3.9,5.2-7.9,10.2-11.3,15.5c-2.4,3.8-5.2,7-8.8,9.4c-5.9,4-12,7.6-18.2,11.3c-4.7,2.7-9.3,5.7-14.4,7.6
			c-5.3,2.1-11,3.4-16.6,4.4c-7,1.2-14.1,2.7-21.3,1.1c-7-1.6-13.8-3.5-20.7-5.2c-6-1.5-11.4-4.4-16.1-8.1
			c-6.6-5.1-13-10.7-19.1-16.4c-5.8-5.4-11.3-11.1-13.2-19.3c-0.6-2.5-2.2-4.8-3.4-7.2c-1.9-3.9-3.8-7.8-5.9-11.9
			C327.8,884.3,327.8,882.5,327.1,880.4z"/>
		<path class="st1" d="M337.2,890.3c3.3-0.5,6.4-0.9,9.6-1.3c-0.3,1.9-0.5,3.7-0.9,6.4C342.4,893.9,338.7,894.3,337.2,890.3z
			 M340.9,899.6c1.1,2,2.2,3.9,3.6,6.3C345.9,899.5,345.5,898.9,340.9,899.6z M380.4,884.9c-0.7,0.8-0.6,2.1-0.8,3.2
			c0.4,0.2,0.7,0.3,1.1,0.5c2.8-3.9,5.7-7.9,8.5-11.8c-0.2-0.2-0.3-0.3-0.5-0.5C385.8,879.2,383,882,380.4,884.9z M373.7,867.5
			c0.4,2.2,1.5,4.2,2.6,7c3.6-4.3,6.8-8,10.3-12.2c-2.8-0.4-5.1-0.8-7.3-0.9C375.5,861.1,373,863.9,373.7,867.5z M400.8,931.2
			c-6,3.1-12.1,5.4-18.8,6C387.6,940.5,393.6,938.5,400.8,931.2z M386.2,925.8c-1.5,1.4-3,2.7-5,4.4c2.6,0.6,4.4-0.6,6-1.7
			c1-0.7,1.8-1.2,3.2-1.1c3.6,0.1,5.7-2.2,6.4-6.1c6.5-1.6,10.2-6.9,15.1-11.4c-4.8-1.9-8.3,0-11.4,2.6
			C395.6,916.8,391,921.4,386.2,925.8z M393.3,909.4c-5.1,4.2-10.4,8.2-15.9,12.6c1.3,1.1,2.5,2.1,3.6,3c5.5-4.9,11-9.6,16.8-14.7
			C396.3,909,395.3,907.9,393.3,909.4z M358.6,914.8c-1.6,0.3-3.1,0.7-4.7,1c0.1,0.5,0.3,0.9,0.4,1.4
			C356,917.1,357.6,917,358.6,914.8z M365.3,920.5c3.8-0.1,6.2-0.3,8.2-2.5c1.2-1.3,3.1-1.9,4.8-2.6c1.4-0.6,1.8-3.7,4.3-2
			c0.1,0.1,0.9-0.4,1-0.8c2.2-4.7,7.6-5.3,10.9-9.2c-0.3-2.8-0.7-6-1.2-10.4C384.3,903.1,376.3,912.5,365.3,920.5z M471.9,837
			c-1.7,3.8-3.3,7.4-5.3,11.8C474.2,846,475.7,842.4,471.9,837z M421.1,913.7c-2.4,2.3-4.1,3.9-6.4,6
			C419.9,919,419.9,919,421.1,913.7z M369,881.5c-0.8-2.7-1.5-5.3-2.5-8.8c-3.7,3.6-6.9,6.6-10.8,10.3
			C360.7,883.1,364.8,886.3,369,881.5z M404,935.6c-0.2,1.5-2.1,2.7-3.2,4.1c2.4,0.9,4.7,2,7.2,2.7c3,0.9,5.9-1.8,5.3-5.2
			c-0.5-2.7-1.5-5.4-2.5-8c-0.9-2.3-0.6-5.5-4.6-5.5c7-7.7,13.5-14.9,20.1-22.2c2.3,1.7,2.5,3.3,0.7,5.2c-1.1,1.1-1.9,2.6-2.9,3.9
			c0.3,0.2,0.6,0.5,0.9,0.7c1.3-1.4,2.7-2.8,4-4.2c3.4,3.3,3.3,3.9-1.6,10.6c1,0.1,1.8,0.3,2.6,0.3c1.8-0.2,3.6-0.5,5.4-0.7
			c3.2-0.3,5-2.6,4.2-5.8c-0.9-3.3-1.6-6.7-3.1-9.7c-1.1-2.2-3.4-3.8-5.5-6c5.5-7.4,12.2-14.6,15.9-23.8c3.6-8.9,7.2-17.7,10.9-26.6
			c-0.3-0.2-0.7-0.3-1-0.5c-0.5,1-1.1,1.9-1.4,2.8c-3.5,10-9,18.9-14.9,27.7c-5,7.5-10,14.9-15.5,22.1c-7.2,9.4-14.3,18.8-23,26.8
			c-0.3,0.3-0.5,0.7-1.1,1.5c1.2-0.3,2-0.4,3.3-0.7C404,928.8,404.4,932.2,404,935.6z M466,875.1c-0.4,1.8-0.8,3.2-1.3,5.3
			C468.3,877.9,468.3,877.9,466,875.1z M459.7,881.2c0.9-2.8,2.2-5.4,3.5-8c1.3-2.7,0.9-5-1.7-8c-0.7,2.7-2.9,4.1-1.8,6.6
			c0.1,0.3-0.1,1.1-0.5,1.2c-5.2,3.1-4.7,9.7-8.5,13.7C454.6,886.1,458.2,885.6,459.7,881.2z M426.5,928.7c-2.3-0.9-4.4-0.2-6.9,0.5
			c0.4,1.6,0.9,3.1,1.4,5.2C423.2,932.2,424.7,930.6,426.5,928.7z M407.9,943.4c-1.5,0-2.6,0-3.9,0c0.2,0.5,0.2,0.9,0.3,1
			C405.5,944.6,406.9,945.5,407.9,943.4z M425.9,940.3c5.8-4.4,11.1-9.3,16.2-15.9c-4.3,0.7-7.3,1.4-9.7,4.3
			c-2.9,3.6-6.5,6.6-9.5,10.1c-1.2,1.4-1.6,3.5-2.3,5.2c0.3,0.2,0.6,0.4,0.9,0.6c0.5-0.3,1.4-0.5,1.5-0.8
			C422.9,941.8,422.6,939.5,425.9,940.3z M416.1,874.3c4-0.5,3,5,7,3.8c-2.5,5.5-5.8,9.5-9.3,13c-1.7-1.3-2.9-2.2-4-3.1
			C411.9,883.5,414,878.9,416.1,874.3z M418,881.6c-0.4-0.3-0.7-0.5-1.1-0.7c-0.8,1.5-1.6,3-2.5,4.5c0.1,0.1,0.1,0.1,0.2,0.2
			C415.7,884.3,416.8,883,418,881.6z M413.6,897.4c-0.6,0.7-0.7,1.8-1.3,3.3c4.2-3.1,16.4-20,18-24.6c-2,0-3.1,1-3.9,2.5
			C422.6,885.3,418.6,891.7,413.6,897.4z M450.9,897.1c-2.2,0.1-4.3,0.1-7.2,0.2c1.1,2.3,1.9,4.1,2.7,5.8
			C449.6,902.3,450.1,899.8,450.9,897.1z M418.2,896.5c-2.2,3.1-4.5,6.1-5.6,9.8c-0.1,0.4,0.1,0.8,0.3,1.6
			c8.5-9.9,13.8-21.8,24.2-30.7c-4-0.7-5.6,1.1-7.1,3.2C426.1,885.8,422.1,891.1,418.2,896.5z M374.1,932.8c-1.4-1-2.1-1.6-3.1-2.3
			c-0.6,0.8-1,1.4-1.7,2.4C371,932.8,372.2,932.8,374.1,932.8z M462.4,848.5c0.9-4.9,2.4-9.5,4.9-13.9c1.4-2.5,2-5.5,0.4-8.6
			c-0.7,0.3-1.4,0.4-1.7,0.8c-0.5,1-0.9,2-1,3.1c-0.8,6-2.8,11.6-5.1,17.2c-0.4,0.9-0.3,2.1-0.4,3.1
			C461.2,850.6,462.1,850,462.4,848.5z M470.1,887.5c-3.4,1.8-6.7,3.7-10.1,5.4c-2.9,1.4-3.7,4.5-5.4,6.8c-1.9,2.6-3.4,5.5-5.1,8.3
			c-1.5,2.4-1.5,2.4,0.5,6C456.9,908.6,468.4,893.3,470.1,887.5z M486.3,850.6c-2.3,4-4.4,8.1-5.6,12.6c-0.2,0.7-0.5,1.3-0.7,2
			c-0.7,2.9-1.4,5.8-2.1,8.7c-0.5,0-1.1,0.1-1.6,0.1c-0.5-1.4-1.5-2.7-1.4-4c0.1-2.2-2.1-1.6-2.8-3.1c-2.9-6.3-0.2-14,6.5-16.1
			c2.4-0.8,5-0.7,7.5-1C486.2,850,486.4,850.4,486.3,850.6z M476,865.9c2.7-3.7,3.9-8,5.1-12.3C477.7,857,476.3,861.3,476,865.9z
			 M455.2,867.6c1.4-2.7,2.1-5.7,3-8.7c0.1-0.5-0.5-1.3-1.3-3c-4.6,12.7-8.8,24.2-17.5,34.2c3.3,0.2,4.4-1.3,5.3-3
			C448.3,880.7,451.9,874.2,455.2,867.6z M504.2,854.5c-0.5,1.3-1,2.6-1.5,3.9c0.5,0,1-0.1,1.4-0.1c4-7.6,1.7-15.8,2.8-23.7
			c-0.3-0.1-0.6-0.2-0.9-0.2c-0.9,2-1.9,4-2.8,5.9c-0.1-0.7-0.2-1.4-0.3-2.5c-2.1,1.7-3.2,3.4-2,6.2c0.9-0.6,1.6-1,2.3-1.5
			c-1.2,7-2.6,13.9-5.5,20.5c-1.5,3.5-2.2,7.4-3.6,11c-2.9,7-5.6,14.1-9.3,20.7c-3.9,6.9-8.5,13.3-13.4,19.6
			c-4.7,6.1-10.1,11.7-15.8,18.3c3.9-2.7,7.1-4.9,10.2-7.2c2-1.4,3.9-3,5.8-4.6c1.2-1,3.7-1.5,2.1-4.1c-0.2-0.3,1.6-2.3,1.7-2.2
			c2.2,1.3,2.7-0.9,2.8-1.8c0.5-3.8,3.2-6.3,5.1-9.2c5.3-8.1,9.3-16.8,12.1-26c2.2-7.1,4.3-14.2,6.5-21.3c0.2-0.5,0.4-1,0.6-1.5
			C503.2,854.5,503.7,854.5,504.2,854.5z M487.9,900.7c-0.7,0.8-1.3,1.5-1.9,2.3c0.1,0.1,0.2,0.1,0.3,0.2c0.6-0.8,1.3-1.5,1.9-2.2
			C488,900.9,487.9,900.8,487.9,900.7z M510.8,869.2c-0.4-0.1-0.8-0.2-1.1-0.3c-1.5,5.2-3.1,10.5-4.6,15.7c0.3,0.1,0.6,0.2,1,0.3
			C508,879.7,510.8,874.9,510.8,869.2z M596.1,937.6c0.4,0.3,0.8,0.5,1.1,0.8c0.6-1.2,1.3-2.5,1.9-3.7c-0.2-0.1-0.4-0.2-0.6-0.4
			C597.8,935.5,596.9,936.5,596.1,937.6z M507.7,825c0,0,0,0.1,0,0.1c0.1,0,0.1-0.1,0.2-0.1c-0.1,0-0.1-0.1-0.2-0.1
			C507.7,824.9,507.7,825,507.7,825z M503.7,832.7c3.2-1.8,4.1-4.4,4-7.6C505.2,826.9,503.4,829.1,503.7,832.7z M392.9,861.8
			c-1.1,0.3-2.1,0.2-2.4,0.6c-4.2,5.5-8.4,11.1-12.5,16.7c-0.2,0.2,0.2,0.8,0.5,1.6c5.5-4.8,10.4-9.7,14.3-15.6
			C393.2,864.4,392.9,863.1,392.9,861.8z M500.4,871.6c0.2,0.1,0.3,0.1,0.5,0.2c0.6-1.3,1.2-2.6,1.7-3.8c-0.4-0.1-0.7-0.3-1.1-0.4
			C501.2,868.9,500.8,870.3,500.4,871.6z M509.6,882c-1.7,3.5-3.4,7-5.2,10.8C507.8,890.9,509.6,887.3,509.6,882z M647,927.7
			c1.2-5.3,0.8-5.6-4.8-7.6c-0.4,1.8-0.7,3.6-1.1,5.6c-2.1-0.7-3.1-1.7-2.9-3.8c0.2-1.9,0.7-4.3-0.2-5.7c-1-1.4-3.4-1.8-5.2-2.7
			c-0.3-0.1-0.6-0.2-1.2-0.4c-0.5,1.3-1,2.7-1.7,4.8c-0.7-1.4-1.4-2.2-1.5-3.1c-0.2-4.3-0.1-4.3-4-5.2c-0.6-0.1-1.2-0.2-1.8-0.3
			c-1.3,0.4-0.1,3.7-3.2,2.4c0-1.2,0.1-2.5,0.2-4.2c-2.9-1-5.9-2.1-8.8-3.1c-0.9,1.4-1.5,2.4-2.2,3.5c-0.7-0.4-1.1-0.6-1.1-0.7
			c0.5-3.8-1.8-5.2-4.9-5.9c-1.3-0.3-2.7-0.7-4.4-1.1c-0.2,1.1-0.4,2.1-0.6,3.2c-3.8,0.5-1.7-2.7-2.7-4.3c-2-0.3-4.3-2.7-5.9,1.2
			c-0.1,0.3-1.9,0-3.8-0.1c0.4-1.6,0.7-3,1.1-4.6c-4.1-0.8-7.2-1.5-10.7-2.2c0.3,1.2,0.4,1.9,0.7,2.9c-1.2-0.1-2.2-0.2-3.3-0.3
			c-0.1-1.5-0.2-2.9-0.2-4.3c-2.3-0.8-4.5-1.6-7-2.5c-0.4,1.3-0.8,2.4-1.4,4c-1-3.4-3.1-0.3-4.8-1.6c-0.7-1.7,0.3-5.3-3.3-5.1
			c-2.1,0.1-4.1,1.3-6.4,2.1c-0.3-1.8-0.5-3.3-0.6-4.7c-4.2-1.2-4.2-1.1-6.3,1.6c-0.4,0.6-1,1.1-1.6,1.5c-0.2,0.2-0.6,0.1-1.1,0.1
			c0.3-2.2,0.6-4.4,0.9-7c-2.1-0.3-3.9-0.6-5.6-0.8c-0.3,0.2-0.7,0.4-0.7,0.6c-1.4,5.3-2.7,10.7-4,16c1.9,1.7,0.5,3-0.8,4.2
			c3.3,1.4,4.7-0.1,9.3-9.3c2.9,1.2,3,3.3,2.3,6c-0.8,2.9-1.3,6-2.2,9.6c3-1.3,4.3-3.4,4.4-5.4c0.1-2.6,1.7-4.1,3.1-6.1
			c4.6,1.9,4.6,1.9,4,6.1c-0.4,2.8-0.9,5.5-1.4,8.3c-0.4,1.8,0.3,3.1,2.1,3.6c1.8,0.6,2.5-0.9,3-2.2c1.1-2.9,2.1-5.8,3.3-9
			c1.5,0.5,2.8,0.9,3.9,1.2c1.6,5.2-0.1,10-1.8,15.5c6-2.8,7.9-8,10.8-12.1c4.3,0.5,4.7,0.7,3.8,4.2c-0.7,3-1.8,5.9-2.8,8.8
			c-0.5,1.4-1.1,2.8-1.7,4.3c3.8,1.7,4.1,1.9,5.9-0.8c2.1-3.1,3.6-6.5,5.4-9.7c1.5-2.8,1.5-2.8,5.4-1.5c-1,6.5-4,12.4-6.6,19.8
			c1.9-0.8,3.1-0.9,3.5-1.6c2.5-3.9,4.8-7.9,7.1-12c0.7-1.2,1.1-2.5,1.7-4.1c1.1,0.4,2.1,0.7,3.6,1.3c-1.8,7.1-3.6,14-5.4,20.9
			c8.6-2.8,9-11.1,12.7-17.4c1.1,0.4,2.3,0.8,3.9,1.3c-1.9,6.9-3.8,13.5-5.7,20.6c0.4,0.3,1.2,0.9,2.2,1.7
			c6.2-4.5,8.6-11.5,11.9-18.2c1.4,0.8,2.6,1.4,3.8,2.1c-1.5,7.5-4.9,13.9-7.8,20.6c4.2,0.2,6.6-1.8,8-5.4c1.4-3.6,3.1-7.1,4.8-10.9
			c2.3,0.7,2.9,1.9,2.2,4.4c-1.4,4.5-2.3,9.2-3.6,14.9c4.6-2.6,6.5-6.8,9.7-9.8c1,1.2,1.8,2.2,3,3.7c-1.5,3.1-3.1,6.3-4.7,9.6
			c1.9,0.5,3.1-0.5,4.3-1.8c2.5-2.7,4.7-5.7,8.1-7.5c1.2-0.7,2.3-2.8,2.2-4.3C645.3,935.4,646.1,931.6,647,927.7z M390,843.3
			c-2,2.9-3.6,5.3-5.9,8.7c3.7,0.2,6.3,0.3,9,0.5C394.3,848.6,391.5,846.6,390,843.3z M642.5,954c2.6,0.1,4.3-1.3,5-4.1
			c1.5-5.5,3-11,4.4-16.6c0.3-1.1-0.1-2.4-0.2-3.9C648.5,938.1,645.5,946.1,642.5,954z M520.5,885.1c2.4-7.6,1.5-14.6-4-20.7
			c-0.5-0.5-1.2-0.9-2.6-0.9c0.3,1,0.4,2.3,1,3c2.7,3.2,3.3,7,2.6,10.9c-0.8,4.5-2.2,8.9-3.4,13.4
			C517.6,890.5,519.5,888.3,520.5,885.1z M517.2,892.9c-1.1-0.7-2.1-1.4-3.1-2c-1.8,2.1-3.5,4.2-5.5,6.5
			C512.1,897.6,513.1,897,517.2,892.9z M514.1,890.8C514.1,890.8,514.1,890.8,514.1,890.8c0,0-0.1,0-0.2,0
			C514,890.8,514,890.8,514.1,890.8C514.1,890.8,514.1,890.8,514.1,890.8z M507.7,824.9c0.9-11.2-3.7-20.9-7.6-30.7
			c-0.4,0.1-0.9,0.2-1.3,0.3c0.7,5.5,1.3,11,2.4,16.4c0.3,1.3,2.7,2.2,4.3,3.4c-0.8,1.4-1.8,3-3.1,5.2c1.2-0.3,1.8-0.5,2.6-0.7
			C504.4,821.5,505.4,823.6,507.7,824.9z M413.1,861.7C413.1,861.7,413.1,861.7,413.1,861.7c0,0-0.1,0-0.1,0
			C413,861.7,413,861.7,413.1,861.7C413.1,861.7,413.1,861.7,413.1,861.7z M413.1,861.8c-1,1.7-2.2,3.3-3,5
			c-3.1,7.5-7.4,14.3-12.4,20.5c-0.6,0.8-1.1,1.7-2.1,3.3c3.6-0.1,6.4-0.2,9.6-0.3c1.2-3.1,2.7-6.2,3.7-9.4c0.8-2.7,1.9-5.1,3.9-7.2
			c1.2-1.3,1.8-3.1,2.7-4.8C413.1,867.1,416,863.5,413.1,861.8z M344.6,821c1.7-3.8,3.3-7.7,5-11.6
			C346.2,812.5,344.4,816.4,344.6,821z M479.2,769.3c1.4,1.9,2.5,3.3,3.9,5.1C484,770.8,484,770.8,479.2,769.3z M345.4,861.7
			c-2.5,1.4-5.3,1.8-8,0.4c-0.6-0.3-1.4-0.4-2.3-0.6c1.8,4.6,5.9,7,9.9,4.9c4.2-2.2,8.2-4.9,11.8-8.1c6.8-6.1,11.2-14,15.2-22.1
			c3.7-7.3,7-14.8,10.4-22.3c0.4-1,0.6-2,0.9-3.1c-0.2,0-0.4,0-0.7,0c-2.1,4.6-4,9.4-6.5,13.7c-5.8,9.7-11.7,19.4-19.2,28
			C353.7,856.4,349.8,859.3,345.4,861.7z M351.9,876.2c-5.3,2.6-10.9,4.2-17.2,4.3c0.8,4.3,3.3,5.8,7.4,4.4c2.5-0.8,5.1-1.8,7.1-3.3
			c5.4-4.1,10.5-8.4,15.7-12.8c0.8-0.6,1-2,1-3.4C361.1,868.9,357.2,873.5,351.9,876.2z M394.3,883.2c0,0,0,0.1,0,0.1c0,0,0,0,0,0
			L394.3,883.2C394.3,883.2,394.3,883.2,394.3,883.2z M496.3,806C496.3,806,496.3,806,496.3,806C496.3,806,496.3,806,496.3,806
			C496.3,806,496.3,806,496.3,806z M391.5,797c0,0.1,0,0.1,0,0.2c0,0,0,0,0,0L391.5,797z M386.5,842.5c1.4-1.9,1.1-3.6,0-6.1
			c-3.1,5.1-5.9,9.6-8.7,14.2c3.3,1.3,3.5,1.2,4.9-1.8C383.9,846.7,385,844.5,386.5,842.5z M496.3,806
			C496.3,806,496.3,805.9,496.3,806c-0.2-2.1-0.4-4.2-0.5-6.4c0-0.2,0.1-0.3,0.1-0.4c-1.2-3.3-2.3-6.6-3.6-10.1
			C489.9,796.2,491.4,801.8,496.3,806C496.3,806,496.3,806,496.3,806L496.3,806c0.4,3.6,0.9,7.2,1.3,10.8c0.1,0,0.3,0,0.4,0.1
			c0.4-1.5,0.7-3,1.1-4.5c0.3,0,0.6,0,0.9,0c-0.1,0.7-0.2,1.5-0.2,2.2c-0.8,18-5.8,35.2-11.7,52.1c-4.4,12.6-9.9,24.8-17.5,35.8
			c-0.3,0.5-0.2,1.3-0.3,3.1c2.2-2.7,3.8-4.5,5.3-6.3c-2.5,4.6-5.1,8.9-8.1,13c-2,2.9-4.4,5.6-6.7,8.2c-2.8,3.1-6.5,5.6-8.5,9.1
			c-1.9,3.3-5.3,3.2-7.6,5.4c-1.1,1.1-3.4,1.1-5.1,1.6c-2.4,0.6-3,2.1-2,4.3c-3,1.4-5.5,2.6-9,2.3c2.6-2.3,4.9-4.2,6.9-6.3
			c6-6.4,11.7-13.2,17.9-19.3c9-8.8,15.2-19.5,21.6-30.2c4-6.7,6.4-14.1,9-21.3c2.9-8.2,5.6-16.4,8.5-24.6c0.9-2.5,0.2-4-2.6-6
			c-0.4,2.7-0.7,4.6-1.1,6.7c-2.2-0.9-3.3-1.9-2.4-4.3c0.4-1.1,0.4-2.4,0.6-3.6c-0.2,0-0.5-0.1-0.7-0.1c-0.7,1.2-1.4,2.4-2.2,3.8
			c-2.5-3.3-2.5-3.3-3.1-8.1c-0.1-0.8-1-2.1-1.5-2c-2.4,0.2-3-1.8-4.3-2.9c-3.4-2.8-6.9-5.6-10.7-8.7c-1.8,7.9-3.5,15.2-5.2,22.5
			c-0.4-0.1-0.9-0.2-1.3-0.3c0.8-3.7,1.6-7.4,2.3-11.1c0.7-3.8,1.5-7.6,2.1-11.4c0.2-1.5-0.7-2.3-2.4-1.6c-0.2,3.3-0.3,6.5-0.5,9.9
			c-1,0.6-2,1.1-2.5,1.4c0.3,2,0.6,3.5,0.6,5c0.1,4.5-1.9,8.6-3.3,12.7c-0.8,2.3-1.1,5.2-2.6,6.9c-2,2.3-2.8,5-3.9,7.7
			c-2,5-4.6,9.6-8.8,13.4c-1.2-2.4-1.3-2.5-0.6-3.5c4.7-7.1,9.2-14.3,12.1-22.4c0.4-1.1,1.6-2,2.7-3.2c-0.3-3.1-0.5-4-1.4-5.3
			c0,0,0-0.1,0-0.1c0,0,0,0,0,0c0,0,0,0,0-0.1c2.4-2.1,1.8-5.3,2.5-8c1.2-4.9,1.3-10.2,3.3-14.7c1.2-2.7-0.2-2.5-1.6-3.5
			c-1,4.9-2,9.8-3,14.6c-0.3,0-0.5,0.1-0.8,0.1c-0.9-2.3-1.8-4.6-2.7-6.9c0.1,0,0.1,0,0.2,0l-0.2,0l0.2,0c0-0.1,0-0.3,0-0.4
			c0.8-2.2,1.6-4.3,2.3-6.5c0.3-0.9,0.4-1.8,0.6-2.9c-1-0.3-1.8-0.5-3.3-0.9c0.1,3.8,0.2,7.1,0.4,10.4c-0.1,0.2-0.1,0.3-0.2,0.5
			c0,0,0,0,0,0c-2.9,0.3-3.6-0.4-4.5-5.1c-1.6,0.9-3.1,1.7-5.4,3c2.7,2.3,4.7,4,6.8,5.7c4.7,3.9,5.8,9.1,5.4,14.8
			c0,0-0.1,0.1-0.1,0.1c0,0,0,0,0.1,0l0,0c0,0,0,0,0,0c-4.3,9.8-8.1,19.9-14.6,29c-0.8-0.5-1.5-0.9-2.4-1.5c3.1-7,6.2-13.9,9.3-20.8
			c-0.8-0.2-1.2-0.4-1.3-0.3c-4.2,5.6-5.9,12.4-9.1,18.7c-2.9-3.7-1.9-7.3,0.3-9.9c2.3-2.7,2.7-5.6,3.3-8.6
			c-1.3,1.8-2.2,3.8-3.2,5.8c-1,2.1-2,4.1-3.2,6.6c-1.7-2.4-3.5-0.3-5.8,0.7c1.4-3.6,2.7-6.6,3.7-9.6c0.9-2.9,3.3-5.5,1.7-9.5
			c-0.8,1.3-1.4,2-1.8,2.8c-1.7,4.2-3.3,8.5-4.8,12.8c-0.1,0.3-0.1,0.6-0.1,0.9c0,3.4-1.9,4.9-5,5.7c-2,0.5-3.9,1.5-5.8,2.3
			c0.2-0.8,0.2-1.7,0.5-2.5c3.1-8.1,6.2-16.1,9.4-24.2c0.7-1.9,0.7-3.3-2.3-3.5c-0.9,1.8-2,3.6-2.7,5.6c-1.8,5.1-3,10.3-5,15.3
			c-4,10-9,19.6-15,28.6c-0.8,1.1-2.4,1.7-3.7,2.5c0,0,0-0.2,0-0.1l0,0l0,0c0,0,0,0,0,0c-0.1,0.1-0.1,0.2-0.2,0.3
			c-1.1,0.6-2.2,1.2-3.3,1.8c0.3,0.4,0.5,0.7,0.8,1.1c0.8-0.9,1.7-1.9,2.5-2.9c0.1,0,0.1-0.1,0.2-0.1c-0.1,3-2.1,5-3.9,7
			c-3.7,4.1-7.7,7.9-11.3,12.1c-1.9,2.1-3.8,3.9-6.2,5.4c-2.2,1.4-3.9,3.4-6,5c-1.6,1.2-3.5,2.2-5.6,3.5c0.4-3.8,1.1-4.8,4.3-6.5
			c2.8-1.4,4.3-4.1,6.6-6.1c-2-1.6-3.5-1.3-5-0.1c-1.7,1.3-3.4,2.8-5.2,3.9c-2.8,1.8-5.1,4.4-8.7,4.9c-1.2-2.4-0.3-3.6,1.8-4.5
			c2.8-1.2,5.5-2.6,7.6-5.1c-3.3-2.3-3.9-2.3-11.5,0.2c0.9-2.4,1.7-4.3,2.2-6.2c0.6-2.3,2.1-3.4,4.3-3.5c7.4-0.5,14.8-2.3,21.8,2.1
			c3.2-4.2,6.4-8.1,9.1-12.2c4.3-6.3,8-13,12.6-19c2.8-3.6,5.2-7.1,6.1-11.7c0.6-3.3,2.6-6.3,3.7-9.5c1.6-4.5,3-9,4.5-13.6
			c-3.4-1.2-3.5-1.1-5,2c-2.6,5.4-5.3,10.7-8,16c-0.2,0.4-0.6,0.5-1.1,0.9c-2-2.4-0.6-4.9,0.4-6.5c2.9-4.4,3.5-9.7,6.5-14.6
			c-3.9-0.5-7.2-1-10.6-1.4c-3.7-0.4-6.9-1.8-9-5.6c-1.8,3-3.9,4.9-4.4,8.1c-0.3,1.7-2.1,3.3-3.4,4.8c-1.5,1.6,0,3.6-1.5,5.5
			c-2.3,3-5.1,6-6.1,10.1c-0.5,2-1.5,4.1-4,4.8c-0.7,0.2-1.3,1.2-1.9,1.9c-1.2,1.4-2.1,3-3.5,4.2c-3.4,3.1-7.2,5.9-10.4,9.2
			c-3.9,4.1-8.9,5.4-14,6.8c-1.1,0.3-2.3,0-3.8-0.1c0-2,0-3.6-0.1-5.6c1.8,0.4,3,0.5,4.1,0.9c2.4,0.9,4.7,0.5,6.7-0.7
			c6.1-3.5,11.6-7.7,16.2-13.1c4.2-5,7.2-10.8,10.5-16.4c5.5-9.1,10-18.6,13.3-28.6c1.7-4.9,3-9.9,4.5-14.9c0,0,0.1,0,0.1,0
			c0.2,3.7,0.5,7.3,0.8,11.6c5.7-2.8,11.7-1.9,19-1.4c-3.7-3.4-3.3-6.5-2.1-9.3c-1.8-2.6-3.3-2.1-5,0.2c-0.4-0.9-0.8-1.4-0.7-1.9
			c0.1-2.4-1.3-3.1-3.2-2.7c-3.2,0.5-6.4,1-8.8,3.6c0,0,0-0.2,0-0.2c0,0.1,0,0.1-0.1,0.2c-1.3,0-3.2-0.4-3.8,0.3
			c-2,2.4-3.9,5-5.1,7.8c-2,4.8-4.5,9.4-7.2,13.8c-5.4,8.5-11.2,16.8-17,25c-3.8,5.5-8.6,9.9-14.6,12.9c-4.4,2.2-6.8,0.8-7-4.7
			c8.3-0.3,13.7-5.2,18.9-11.1c8.4-9.6,14.6-20.5,20.3-31.7c1.5-2.9,2.3-6.2,3.6-9.7c-3.6,0.8-4.9,2.7-6.1,5.3
			c-2.6,5.6-5.4,11.2-8.7,16.3c-3.9,6.1-8.4,11.8-12.9,17.5c-2.4,3-5.2,5.6-9.3,7.2c3.2-3.5,6.6-6.2,8.8-9.7
			c6.3-10,12.1-20.2,18.1-30.4c0.5-0.8,0.6-1.9,0.9-3.2c-4.3,2.7-5.9,4.4-7.7,7.7c-3.5,6.2-6.7,12.5-10.7,18.4
			c-2,2.9-4.2,5.8-6.5,8.7c-1.8,2.3-3.7,4.7-7.1,4.8c-0.6-2.7,0.4-4.2,2.9-5.5c2.5-1.3,5.4-3.1,6.7-5.5c3.6-6.3,6.4-13,9.5-19.7
			c0.3-0.6-0.1-1.5-0.2-2.2c-1.5,1.1-2.3,2.4-3.1,3.7c-3.2,5.5-6.3,11-9.5,16.4c-0.9,1.5-2,2.9-4.5,2.5c1.6-2.7,3.3-5.2,4.6-7.8
			c3-6.1,5.9-12.3,8.7-18.5c0.9-2.1,3.1-4.1,1.4-6.9c-0.2-0.3,0.4-1.2,0.8-1.6c2.8-2.3,3.2-6.9,7.4-8c0.4-0.1,0.9-0.7,0.9-1
			c0.2-4.6,4.3-6.6,6.5-9.8c1.8-2.6,4.1-5,7.7-5.5c0.9-0.1,2-1.1,2.5-1.9c2.7-4.3,6.7-5.8,11.4-5.9c0.7,0,1.9-0.1,2.2-0.5
			c1.8-3.4,5.6-2.6,8.3-3.9c0.6-0.3,1.4,0,2.1,0c-0.3,2.1,1.4,1.3,2.2,1.2c3.4-0.5,6.7-1.2,10.2-2c-0.2-2.6,0.4-4.5,3.2-4.8
			c2.2-0.2,4.3-1.5,6.9-0.3c-1.2,1.4-3.2,2-2.3,4.1c1.1,2.5,2.9,3.4,5.5,3.1c1.1-2.8-2.3-5.4-0.6-8.1c1.4,1.6,2.7,3.1,4.1,4.5
			c1,1.1,2.5,2.1,3.1,3.4c1.2,2.7,3.2,3.6,5.9,3.7c0.3,0,0.5-0.2,0.9-0.4c0-1.3,0-2.6,0-4.2c1.3-0.5,2.6-1,3.7-1.4
			c0.7,3.9,4.1,6.3,4.5,9.9c0,0.2,1.3,0.3,2.3,0.5c-0.9-4.3-1.7-8.2-2.6-12.8c1.3,0.7,2.2,0.9,2.7,1.4c2.9,3.2,4.7,7,5.5,11.1
			c0.6,3.2,2.2,4.8,5.5,5.7c-0.2-1.2-0.2-2.3-0.5-3.2c-0.9-2.6-1.9-5.3-2.9-7.9c-0.7-1.8,0.3-3.4,1.9-3.5c1.8-0.1,4-0.2,5.3,2
			c1,1.7,2.4,3.2,3.5,4.9c1.8,2.6,3.6,5.3,5.7,8.3c-2.4,0.5-4,0.8-5.5,1.2c-0.4,5.8,1.6,8.4,5.5,8c0.5,1.3,0.7,2.9,1.6,3.5
			c2.2,1.5,4.3,3.1,5.6,5.4c0.2,0.3,0.7,0.4,1.1,0.5c0.7-2.4,1.1-5,2.3-7c1.3-2.3,2.1-4,0-6.2c-1.3-1.4-1.4-3.2-0.6-5.5
			c4,4.1,7.5,8.3,8.5,13.4C497.8,794.9,498.2,800.5,496.3,806z M466.6,908.3c0.1,0.1,0.2,0.3,0.3,0.4c0.6-0.5,1.3-0.9,1.9-1.4
			c-0.2-0.3-0.4-0.5-0.6-0.8C467.7,907.1,467.2,907.7,466.6,908.3z M447.6,807c-0.4-0.1-0.9-0.2-1.3-0.3c-0.3,1.2-0.6,2.4-0.9,3.6
			c0.3,0.1,0.6,0.2,0.9,0.3C446.7,809.4,447.1,808.2,447.6,807z M439,814.6c0.8-3.3,1.6-6.7,2.6-10.5c-2.2-0.5-4.1-0.9-6-1.3
			c-0.3,0.7-0.8,1.3-0.7,1.4c2.2,2.6,1.8,5.5,1.5,8.5C436.2,814.3,437,814.9,439,814.6z M430.4,811.9c0.5-2.9,1.1-5.3,1.3-7.8
			c0.2-1.8,0-1.8-2.6-2.7C427.3,810.3,427.3,810.3,430.4,811.9z M417.8,808.6c1,0.2,1.6,0.3,2.2,0.4c0.4,0,0.9,0,1.3,0
			c0.2-0.3,0.5-0.5,0.5-0.7c0.2-2,0.4-4,0.7-5.9c0.3-2.4-0.6-3.5-3.4-3.1C418.7,802.2,418.3,805.2,417.8,808.6z M414,807
			c0.8-2.7,1.6-5.5,2.7-9.2C413.9,800.7,413.1,803.7,414,807z M398.7,841.8c2.2-4.4,4.2-8.6,6.5-13.3c-3.8-0.2-6.7,0.4-8.7,3.4
			C393.8,836,396.2,838.8,398.7,841.8z M451.9,836.7C451.9,836.6,451.9,836.6,451.9,836.7L451.9,836.7L451.9,836.7z"/>
	</g>
	<path class="st2" d="M635.6,537.4c3.2-6.2,6.5-38.4,6.4-48.8c0-10.4-0.3-8.9-2.7-14.4c-2.4-5.5,20.9-3.9,31.6-1.8
		c10.8,2.1,11.7,6,5.5,27.9c-6.2,21.9-28.2,35.4-34.1,39.4C636.3,543.7,633.3,542,635.6,537.4z M1060.5,638.4
		c-4.2,0.3-17.5,25.3-24.1,26.2c-17,2.2-16.6-43.8-16.7-60.9c-0.1-17,4.8-64.5,5-79c0.2-14.5-13.2-14.8-22.8-15.9
		c-9.6-1.1-10.8-2.1-12.8,1.7c-2.1,3.7-3,5.3-8.6,14.4c-5.6,9.1-19.8,35.5-26.3,50c-1.9,4.2-3.4,7.5-4.8,10
		c2.1-37.1,11-69.5,14-81.7c4.1-16.4-37.6-3.8-37.7-13.1c0-1.4-0.3,10.2-7.6,43.8c-0.9,4.3-1.7,9-2.3,13.9
		c-13.9,31.6-42.8,96.6-46.5,97.9c-4.8,1.8,5.2-43.7,6.6-57.8c1.4-14.1-14.7-15.5-21.8-16c0,0-9.8,11.1-9.2,14.5
		c0.2,1.1-0.3,6.2-1,13.2c-12,22.6-34.4,64-37.2,64.3c-3.9,0.5-0.5-39,13.8-61.3c14.2-22.4,30.9-33.5,30.9-33.5
		c-0.3-3.1-17.4-15.2-26.9-14.1c-7.4,0.9-33.6,13.2-47.9,50.7c-19,22.3-64.9,76.1-67,77.1c-2.7,1.2-10.2-4.2-3.4-29.3
		c18.2-65.1,45.7-70.9,45.7-70.9s12.9,11.1,19.4,9.1c6.6-2,16.8-38,18.3-46c1.5-7.9-14.7-12.6-19.7-11.4
		c-5.1,1.2-12.7,25.5-12.7,32.3c0,0-7.5-7.7-23.9-5.5c-29.2,3.8-50.6,43.6-59.8,76.1L631,696.8c-12.5-1.8,29.1-100.3,31.2-109
		c2.1-8.6-29.6-16.4-31.7-13c-8.9,10.7-16.6,27.9-22.8,46.5c-22.8,36.6-49.9,133.8-49.9,133.8c-7.2-1.9-13.9-43.5-18.3-82.6
		c4.8-9.7,9.6-19.3,14.2-28.2c24.3-46.8,43-69.4,50.1-75.9c7.1-6.4,12.8-19,8.8-34.1c-3.9-15.1-21-27.1-35-26.7
		c-14,0.4-17-0.4-8.9,6.1c8.1,6.5,10.2,7.9,9.6,17c-0.6,9-13.8,51.8-33.6,97.4c-2.5,5.7-5.1,11.7-7.9,17.8
		c-2-22.2-3.1-39.6-2.7-41.9c1.2-6.8-34.4-10.6-37-5c-0.1,10.8,0,20.8,0.2,29.9c-12.3,22.5-40.2,73.6-47.8,85.5
		c-9.8,15.4-10.7,5.4-13.2-16.5c-1-8.5-0.2-19.8,1.1-31.3c19.4-29.5,37.9-60.5,37-70.2c-0.7-7.7-25.4-14.1-41.8-11.9
		c-21.2,2.7-33.5,52-32.7,101.7c0.1,6.4,0.7,12.1,1.6,17.2c-0.4,0.6-0.8,1.2-1.2,1.8c-1.2,1.7-1.9,2.7-2,2.8c-4,5.3-8.4,9.6-11.7,8
		c-4.5-2.2-11.3-67.6-15.5-112.3c-4.3-44.8,0.8-90.1-17-92.9c-17.8-2.8-27.7,3.6-27.7,3.6c0,2.6,1.5,7.4,3.1,16.3
		c-1.6,26.7-11,180.9-16.8,220.8c-4.6-26.3-9.5-66.1-12.9-124.6c-5.3-93.3-3.8-125.9-17.7-129.8c-4.1-1.2-8.5-1-12.7-0.2l0-0.1
		c0,0-0.4,0.1-1,0.3c-4.1,0.9-7.8,2.4-10.8,3.7c-11.4,4.5-27.8,12.8-33.5,25.1c-0.2,0.4-0.1,0.9,0.2,1.2c0.3,0.3,0.8,0.4,1.2,0.2
		c4.3-2.4,13.4-7.1,22-10.1c0.9-0.3,1.9-0.1,2.6,0.5c0.7,0.6,1.1,1.5,1,2.5c-5.9,49.5-33.7,252.4-100.1,332.3
		c0,0-29.4-3.8-29.7-75.5c-0.3-71.7,27.5-90.8,27.5-90.8l-15.8-30.4c-8.5,2.9-51.1,58.2-50.8,139.6c0.3,62.7,48.3,68.4,68.4,65.8
		c20.1-2.6,34.5-17.4,74.2-139.7c21.9-67.4,30.6-121.1,34-155.7c0.2,4.6,0.3,9.5,0.4,14.8c0.9,54.1,8.2,223.6,39.2,225.3
		c31,1.7,25.7-7.8,25.7-7.8s5.2-21.7,5.1-37c-0.1-13.4,2.5-121.5,5.8-150.7c3.8,60.5,12.4,148.2,32.2,144.3
		c11.7-2.3,20.7-13.7,27.1-25.9l0,0c0,0,3.9-5.3,10-13.9c8.7,24.5,27.3,29.5,35.3,30.5c10.5,1.2,14.3-1.5,19.6-14.9
		c3.5-8.8,24.7-50.7,38.8-78.4c1.5,26.2,4.4,44.5,7.9,59c-9.2,18.6-16.6,32.6-19.2,35.7c-5.9,7.1-24.7,7-24.7,7
		c-4.5,1.2-7.5,1.8-7.4,6.2c0,4.3,5.7,7.1,9.3,13.8c3.6,6.8,6.6,16.8,15,16.3c8.4-0.5,9.8-7.6,15.7-21.3c2.4-5.6,8.8-19.9,17.1-37.9
		c3.2,9.4,6.5,17.9,9.7,27.4c11.5,34.4,18.6,33.7,32.4,29.9c13.7-3.8,11-4.9,25.7-68.1c5.2-22.3,11.4-41.7,17.3-57.6
		c-3.2,16.3-4.8,30.2-4.2,37.5c1.6,20.8,11.7,24.8,19.5,27.5c7.8,2.8,15,7.9,25.3-9.6c6.5-11,21.5-39.7,31.7-59.5
		c-0.4,3.1-0.6,6.1-0.5,8.6c0.1,29.8,37.5,36.5,44.6,35.6c7.2-0.9,18.1-17.7,31.8-41.1c7.3-12.5,17.9-26.8,26.2-37.4
		c-1.4,6.1-2.5,12.8-3.3,20c-4.3,40.5,20.2,46.8,32.1,45.3c11.9-1.5,24.1-21.6,27-33c1.6-6.2,8.7-22.1,14.8-35.4
		c-0.9,10.2-1.7,20.4-1.4,26.7c0.7,16.4,19.8,26.9,27.8,21.6c5.5-3.7,30.5-63.3,45.8-100.4c-1.6,29.1-0.1,59.6-0.2,66.5
		c-0.3,9.9,21.3,17.2,29,16.2c7.8-1,9.5-2.4,7.3-26.4c-0.2-2.1-0.4-4.1-0.6-6.2c8.9-21.1,22.5-65.4,25.9-72.6
		c4.4-9.2,10.4-6.6,10.4-2.5c0,4-3.7,36.9-3.6,56.5c0.3,71.3,39,77.1,57.9,76.1C1066.1,674.8,1064.7,638.2,1060.5,638.4z M453,609
		c3.4,3.9-2.9,18.1-12.3,34.6c1.4-9.1,2.8-16.8,3.1-21C445,610.7,451.1,606.9,453,609z"/>
</g>
</svg>
