<?xml version="1.0" encoding="utf-8"?>
<!-- Generator: Adobe Illustrator 24.1.1, SVG Export Plug-In . SVG Version: 6.00 Build 0)  -->
<svg version="1.1" id="Capa_1" xmlns="http://www.w3.org/2000/svg" xmlns:xlink="http://www.w3.org/1999/xlink" x="0px" y="0px"
	 viewBox="0 0 3000 3000" style="enable-background:new 0 0 3000 3000;" xml:space="preserve">
<style type="text/css">
	.st0{fill:#FF0A54;}
	.st1{fill:#FFFFFF;}
	.st2{enable-background:new    ;}
	.st3{display:none;enable-background:new    ;}
	.st4{display:inline;fill:#FFFFFF;}
</style>
<g>
	<path class="st0" d="M1556,2733.5c-180,0-354.7-35.3-519-104.8c-79-33.4-155.2-74.8-226.5-122.9c-70.6-47.7-137-102.5-197.4-162.9
		S498,2216.1,450.2,2145.5C402,2074.2,360.7,1998,327.3,1919c-69.5-164.4-104.8-339-104.8-519s35.3-354.7,104.8-519
		c33.4-79,74.8-155.2,122.9-226.5c47.7-70.6,102.5-137,162.9-197.4S739.9,342,810.5,294.2C881.8,246,958,204.7,1037,171.3
		c164.4-69.5,339-104.8,519-104.8s354.7,35.3,519,104.8c79,33.4,155.2,74.8,226.5,122.9c70.6,47.7,137,102.5,197.4,162.9
		s115.1,126.8,162.9,197.4c48.2,71.3,89.5,147.5,122.9,226.5c69.5,164.4,104.8,339,104.8,519s-35.3,354.7-104.8,519
		c-33.4,79-74.8,155.2-122.9,226.5c-47.7,70.6-102.5,137-162.9,197.4s-126.8,115.1-197.4,162.9c-71.3,48.2-147.5,89.5-226.5,122.9
		C1910.7,2698.2,1736,2733.5,1556,2733.5z"/>
	<path class="st1" d="M1556,98c88.4,0,176.7,8.9,262.5,26.5c83.6,17.1,165.8,42.6,244.3,75.8c77.1,32.6,151.5,73,221.1,120
		c69,46.6,133.8,100.1,192.7,159s112.4,123.8,159,192.7c47,69.6,87.4,144,120,221.1c33.2,78.5,58.7,160.7,75.8,244.3
		c17.6,85.8,26.5,174.1,26.5,262.5s-8.9,176.7-26.5,262.5c-17.1,83.6-42.6,165.8-75.8,244.3c-32.6,77.1-73,151.5-120,221.1
		c-46.6,69-100.1,133.8-159,192.7s-123.8,112.4-192.7,159c-69.6,47-144,87.4-221.1,120c-78.5,33.2-160.7,58.7-244.3,75.8
		c-85.8,17.6-174.1,26.5-262.5,26.5s-176.7-8.9-262.5-26.5c-83.6-17.1-165.8-42.6-244.3-75.8c-77.1-32.6-151.5-73-221.1-120
		c-69-46.6-133.8-100.1-192.7-159s-112.4-123.8-159-192.7c-47-69.6-87.4-144-120-221.1c-33.2-78.5-58.7-160.7-75.8-244.3
		c-17.6-85.8-26.5-174.1-26.5-262.5s8.9-176.7,26.5-262.5c17.1-83.6,42.6-165.8,75.8-244.3c32.6-77.1,73-151.5,120-221.1
		c46.6-69,100.1-133.8,159-192.7s123.8-112.4,192.7-159c69.6-47,144-87.4,221.1-120c78.5-33.2,160.7-58.7,244.3-75.8
		C1379.3,106.9,1467.6,98,1556,98 M1556,35C802.1,35,191,646.1,191,1400s611.1,1365,1365,1365s1365-611.1,1365-1365
		S2309.9,35,1556,35L1556,35z"/>
</g>
<g>
	<path class="st0" d="M1694.1,6125.5c-180,0-354.7-35.3-519-104.8c-79-33.4-155.2-74.8-226.5-122.9
		c-70.6-47.7-137-102.5-197.4-162.9s-115.1-126.8-162.9-197.4c-48.2-71.3-89.5-147.5-122.9-226.5c-69.5-164.4-104.8-339-104.8-519
		s35.3-354.7,104.8-519c33.4-79,74.8-155.2,122.9-226.5c47.7-70.6,102.5-137,162.9-197.4c60.4-60.4,126.8-115.1,197.4-162.9
		c71.3-48.2,147.5-89.5,226.5-122.9c164.4-69.5,339-104.8,519-104.8s354.7,35.3,519,104.8c79,33.4,155.2,74.8,226.5,122.9
		c70.6,47.7,137,102.5,197.4,162.9c60.4,60.4,115.1,126.8,162.9,197.4c48.2,71.3,89.5,147.5,122.9,226.5
		c69.5,164.4,104.8,339,104.8,519s-35.3,354.7-104.8,519c-33.4,79-74.8,155.2-122.9,226.5c-47.7,70.6-102.5,137-162.9,197.4
		s-126.8,115.1-197.4,162.9c-71.3,48.2-147.5,89.5-226.5,122.9C2048.8,6090.2,1874.1,6125.5,1694.1,6125.5z"/>
	<path class="st1" d="M1694.1,3490c88.4,0,176.7,8.9,262.5,26.5c83.6,17.1,165.8,42.6,244.3,75.8c77.1,32.6,151.5,73,221.1,120
		c69,46.6,133.8,100.1,192.7,159c58.9,58.9,112.4,123.8,159,192.7c47,69.6,87.4,144,120,221.1c33.2,78.5,58.7,160.7,75.8,244.3
		c17.6,85.8,26.5,174.1,26.5,262.5s-8.9,176.7-26.5,262.5c-17.1,83.6-42.6,165.8-75.8,244.3c-32.6,77.1-73,151.5-120,221.1
		c-46.6,69-100.1,133.8-159,192.7s-123.8,112.4-192.7,159c-69.6,47-144,87.4-221.1,120c-78.5,33.2-160.7,58.7-244.3,75.8
		c-85.8,17.6-174.1,26.5-262.5,26.5s-176.7-8.9-262.5-26.5c-83.6-17.1-165.8-42.6-244.3-75.8c-77.1-32.6-151.5-73-221.1-120
		c-69-46.6-133.8-100.1-192.7-159s-112.4-123.8-159-192.7c-47-69.6-87.4-144-120-221.1c-33.2-78.5-58.7-160.7-75.8-244.3
		c-17.6-85.8-26.5-174.1-26.5-262.5s8.9-176.7,26.5-262.5c17.1-83.6,42.6-165.8,75.8-244.3c32.6-77.1,73-151.5,120-221.1
		c46.6-69,100.1-133.8,159-192.7c58.9-58.9,123.8-112.4,192.7-159c69.6-47,144-87.4,221.1-120c78.5-33.2,160.7-58.7,244.3-75.8
		C1517.4,3498.9,1605.7,3490,1694.1,3490 M1694.1,3427c-753.9,0-1365,611.1-1365,1365s611.1,1365,1365,1365s1365-611.1,1365-1365
		S2448,3427,1694.1,3427L1694.1,3427z"/>
</g>
<g class="st2">
	<path class="st1" d="M-2246.7,4888.6c0-38-10.5-70-31.4-96s-56.9-50.1-108-72.3c-74.9-27.2-129.6-62.7-163.9-106.4
		c-34.3-43.7-51.5-99.3-51.5-166.7c0-68.6,16.6-124.6,49.9-167.9s78.6-69.6,135.9-78.8v-138.1h88.5v138.8
		c58.6,10.5,103.9,40.3,135.9,89.5s48,116.3,48,201.3h-109.9c0-58.1-10.7-104.6-32-139.7s-50.7-52.6-87.9-52.6
		c-37.3,0-66.3,12.7-87,38.2s-31.1,61.3-31.1,107.7c0,42.2,11.2,75.8,33.6,101.1c22.4,25.3,58.9,48.5,109.6,69.8
		c75.8,28.5,130.1,64,162.9,106.5c32.9,42.5,49.3,97.5,49.3,164.9c0,68.7-17.6,124.8-52.8,168.4c-35.2,43.6-85.6,69.7-151.3,78.5
		v120.6h-87.3v-120.6c-66.2-9.6-116.8-38.5-152-86.6s-52.7-112.4-52.7-192.8h110.5c0,57.9,11.7,102.4,35.2,133.6
		s56.5,46.8,99.2,46.8c43.5,0,77.8-13,102.7-39.1S-2246.7,4934.5-2246.7,4888.6z"/>
	<path class="st1" d="M-1662,5124.6h-111.8v-774.9l-192.1,85.9v-105l286.3-125h17.6V5124.6z"/>
	<path class="st1" d="M-869.5,4734.9c0,134.9-19.7,235.7-59,302.5s-101.1,100.2-185.2,100.2c-81.6,0-142.5-32-182.7-96.1
		s-61.1-160.4-62.8-289v-157.1c0-133.6,19.8-233.3,59.3-299.1s101.2-98.7,184.9-98.7c82.5,0,143.5,31.2,183,93.6
		c39.6,62.4,60.4,156.9,62.5,283.4V4734.9z M-980.6,4575.5c0-96.8-10.7-168.2-32-214.1c-21.3-45.9-55.5-68.8-102.3-68.8
		c-45.6,0-79.1,22.5-100.5,67.6c-21.3,45.1-32.4,113.1-33.3,204v188.6c0,96.4,11.1,168.8,33.3,217.2s56.1,72.6,101.7,72.6
		c45.2,0,78.5-22.8,99.8-68.5c21.3-45.7,32.5-115.5,33.3-209.4V4575.5z"/>
</g>
<g id="treinta" class="st2">
	<path class="st1" d="M1025,1553.6c0-38-10.5-70-31.4-96s-56.9-50.1-108-72.3c-74.9-27.2-129.6-62.7-163.9-106.4
		c-34.3-43.7-51.5-99.3-51.5-166.7c0-68.6,16.6-124.6,49.9-167.9s78.6-69.6,135.9-78.8V727.4h88.5v138.8
		c58.6,10.5,103.9,40.3,135.9,89.5s48,116.3,48,201.3h-109.9c0-58.1-10.7-104.6-32-139.7s-50.7-52.6-87.9-52.6
		c-37.3,0-66.3,12.7-87,38.2s-31.1,61.3-31.1,107.7c0,42.2,11.2,75.8,33.6,101.1c22.4,25.3,58.9,48.5,109.6,69.8
		c75.8,28.5,130.1,64,162.9,106.5c32.9,42.5,49.3,97.5,49.3,164.9c0,68.7-17.6,124.8-52.8,168.4c-35.2,43.6-85.6,69.7-151.3,78.5
		v120.6h-87.3v-120.6c-66.2-9.6-116.8-38.5-152-86.6s-52.7-112.4-52.7-192.8h110.5c0,57.9,11.7,102.4,35.2,133.6
		s56.5,46.8,99.2,46.8c43.5,0,77.8-13,102.7-39.1S1025,1599.5,1025,1553.6z"/>
	<path class="st1" d="M1420.7,1275.6h71c45.6,0,80.8-14,105.5-42.1c24.7-28.1,37-66.4,37-115c0-107.3-41.5-160.9-124.3-160.9
		c-39.8,0-71,14.5-93.6,43.3c-22.6,28.9-33.9,66.8-33.9,113.7h-110.5c0-73.3,22.3-133.6,66.9-180.9c44.6-47.4,101.6-71,171.1-71
		c72,0,129.1,22.5,171.4,67.5s63.4,108.7,63.4,191.2c0,42.3-11,81.7-33,118.3c-22,36.6-50.5,63.5-85.7,80.7
		c86.2,31.9,129.3,103.3,129.3,214.4c0,81.8-22.7,146.8-68.1,195.3c-45.4,48.4-104.8,72.6-178,72.6c-72.4,0-130.9-22.9-175.5-68.8
		c-44.6-45.9-66.9-107.6-66.9-185H1378c0,48.6,11.7,87.2,35.2,115.9s55.5,43,96.1,43c41.4,0,74.4-14,98.9-42.1
		c24.5-28.1,36.7-70.8,36.7-128.3c0-111.1-52.5-166.6-157.6-166.6h-66.6V1275.6z"/>
	<path class="st1" d="M2402.2,1399.8c0,134.9-19.7,235.7-59,302.5s-101.1,100.2-185.2,100.2c-81.6,0-142.5-32-182.7-96.1
		s-61.1-160.4-62.8-289v-157.1c0-133.6,19.8-233.3,59.3-299.1s101.2-98.7,184.9-98.7c82.5,0,143.5,31.2,183,93.6
		c39.6,62.4,60.4,156.9,62.5,283.4V1399.8z M2291.1,1240.5c0-96.8-10.7-168.2-32-214.1s-55.5-68.8-102.3-68.8
		c-45.6,0-79.1,22.5-100.5,67.6c-21.3,45.1-32.4,113.1-33.3,204v188.6c0,96.4,11.1,168.8,33.3,217.2s56.1,72.6,101.7,72.6
		c45.2,0,78.5-22.8,99.8-68.5s32.5-115.5,33.3-209.4V1240.5z"/>
</g>
<g>
	<path class="st0" d="M-1715.7,6068.5c-180,0-354.7-35.3-519-104.8c-79-33.4-155.2-74.8-226.5-122.9
		c-70.6-47.7-137-102.5-197.4-162.9c-60.4-60.4-115.1-126.8-162.9-197.4c-48.2-71.3-89.5-147.5-122.9-226.5
		c-69.5-164.4-104.8-339-104.8-519s35.3-354.7,104.8-519c33.4-79,74.8-155.2,122.9-226.5c47.7-70.6,102.5-137,162.9-197.4
		c60.4-60.4,126.8-115.1,197.4-162.9c71.3-48.2,147.5-89.5,226.5-122.9c164.4-69.5,339-104.8,519-104.8s354.7,35.3,519,104.8
		c79,33.4,155.2,74.8,226.5,122.9c70.6,47.7,137,102.5,197.4,162.9c60.4,60.4,115.1,126.8,162.9,197.4
		c48.2,71.3,89.5,147.5,122.9,226.5c69.5,164.4,104.8,339,104.8,519s-35.3,354.7-104.8,519c-33.4,79-74.8,155.2-122.9,226.5
		c-47.7,70.6-102.5,137-162.9,197.4s-126.8,115.1-197.4,162.9c-71.3,48.2-147.5,89.5-226.5,122.9
		C-1361,6033.2-1535.7,6068.5-1715.7,6068.5z"/>
	<path class="st1" d="M-1715.7,3433c88.4,0,176.7,8.9,262.5,26.5c83.6,17.1,165.8,42.6,244.3,75.8c77.1,32.6,151.5,73,221.1,120
		c69,46.6,133.8,100.1,192.7,159c58.9,58.9,112.4,123.8,159,192.7c47,69.6,87.4,144,120,221.1c33.2,78.5,58.7,160.7,75.8,244.3
		c17.6,85.8,26.5,174.1,26.5,262.5s-8.9,176.7-26.5,262.5c-17.1,83.6-42.6,165.8-75.8,244.3c-32.6,77.1-73,151.5-120,221.1
		c-46.6,69-100.1,133.8-159,192.7s-123.8,112.4-192.7,159c-69.6,47-144,87.4-221.1,120c-78.5,33.2-160.7,58.7-244.3,75.8
		c-85.8,17.6-174.1,26.5-262.5,26.5s-176.7-8.9-262.5-26.5c-83.6-17.1-165.8-42.6-244.3-75.8c-77.1-32.6-151.5-73-221.1-120
		c-69-46.6-133.8-100.1-192.7-159c-58.9-58.9-112.4-123.8-159-192.7c-47-69.6-87.4-144-120-221.1c-33.2-78.5-58.7-160.7-75.8-244.3
		c-17.6-85.8-26.5-174.1-26.5-262.5s8.9-176.7,26.5-262.5c17.1-83.6,42.6-165.8,75.8-244.3c32.6-77.1,73-151.5,120-221.1
		c46.6-69,100.1-133.8,159-192.7c58.9-58.9,123.8-112.4,192.7-159c69.6-47,144-87.4,221.1-120c78.5-33.2,160.7-58.7,244.3-75.8
		C-1892.4,3441.9-1804.1,3433-1715.7,3433 M-1715.7,3370c-753.9,0-1365,611.1-1365,1365s611.1,1365,1365,1365s1365-611.1,1365-1365
		S-961.8,3370-1715.7,3370L-1715.7,3370z"/>
</g>
<g>
	<path class="st0" d="M-1727.3,2874c-180,0-354.7-35.3-519-104.8c-79-33.4-155.2-74.8-226.5-122.9c-70.6-47.7-137-102.5-197.4-162.9
		c-60.4-60.4-115.1-126.8-162.9-197.4c-48.2-71.3-89.5-147.5-122.9-226.5c-69.5-164.4-104.8-339-104.8-519s35.3-354.7,104.8-519
		c33.4-79,74.8-155.2,122.9-226.5c47.7-70.6,102.5-137,162.9-197.4c60.4-60.4,126.8-115.1,197.4-162.9
		c71.3-48.2,147.5-89.5,226.5-122.9c164.4-69.5,339-104.8,519-104.8s354.7,35.3,519,104.8c79,33.4,155.2,74.8,226.5,122.9
		c70.6,47.7,137,102.5,197.4,162.9C-724,658-669.3,724.4-621.5,795c48.2,71.3,89.5,147.5,122.9,226.5
		c69.5,164.4,104.8,339,104.8,519s-35.3,354.7-104.8,519c-33.4,79-74.8,155.2-122.9,226.5c-47.7,70.6-102.5,137-162.9,197.4
		s-126.8,115.1-197.4,162.9c-71.3,48.2-147.5,89.5-226.5,122.9C-1372.6,2838.7-1547.3,2874-1727.3,2874z"/>
	<path class="st1" d="M-1727.3,238.5c88.4,0,176.7,8.9,262.5,26.5c83.6,17.1,165.8,42.6,244.3,75.8c77.1,32.6,151.5,73,221.1,120
		c69,46.6,133.8,100.1,192.7,159c58.9,58.9,112.4,123.8,159,192.7c47,69.6,87.4,144,120,221.1c33.2,78.5,58.7,160.7,75.8,244.3
		c17.6,85.8,26.5,174.1,26.5,262.5s-8.9,176.7-26.5,262.5c-17.1,83.6-42.6,165.8-75.8,244.3c-32.6,77.1-73,151.5-120,221.1
		c-46.6,69-100.1,133.8-159,192.7s-123.8,112.4-192.7,159c-69.6,47-144,87.4-221.1,120c-78.5,33.2-160.7,58.7-244.3,75.8
		c-85.8,17.6-174.1,26.5-262.5,26.5s-176.7-8.9-262.5-26.5c-83.6-17.1-165.8-42.6-244.3-75.8c-77.1-32.6-151.5-73-221.1-120
		c-69-46.6-133.8-100.1-192.7-159c-58.9-58.9-112.4-123.8-159-192.7c-47-69.6-87.4-144-120-221.1c-33.2-78.5-58.7-160.7-75.8-244.3
		c-17.6-85.8-26.5-174.1-26.5-262.5s8.9-176.7,26.5-262.5c17.1-83.6,42.6-165.8,75.8-244.3c32.6-77.1,73-151.5,120-221.1
		c46.6-69,100.1-133.8,159-192.7c58.9-58.9,123.8-112.4,192.7-159c69.6-47,144-87.4,221.1-120c78.5-33.2,160.7-58.7,244.3-75.8
		C-1904,247.4-1815.7,238.5-1727.3,238.5 M-1727.3,175.5c-753.9,0-1365,611.1-1365,1365s611.1,1365,1365,1365s1365-611.1,1365-1365
		S-973.4,175.5-1727.3,175.5L-1727.3,175.5z"/>
</g>
<g id="veinte" class="st2">
	<path class="st1" d="M-2223.5,1770.2c0-38-10.5-70-31.4-96s-56.9-50.1-108-72.3c-74.9-27.2-129.6-62.7-163.9-106.4
		c-34.3-43.7-51.5-99.3-51.5-166.7c0-68.6,16.6-124.6,49.9-167.9s78.6-69.6,135.9-78.8V944.1h88.5v138.8
		c58.6,10.5,103.9,40.3,135.9,89.5s48,116.3,48,201.3h-109.9c0-58.1-10.7-104.6-32-139.7s-50.7-52.6-87.9-52.6
		c-37.3,0-66.3,12.7-87,38.2s-31.1,61.3-31.1,107.7c0,42.2,11.2,75.8,33.6,101.1c22.4,25.3,58.9,48.5,109.6,69.8
		c75.8,28.5,130.1,64,162.9,106.5c32.9,42.5,49.3,97.5,49.3,164.9c0,68.7-17.6,124.8-52.8,168.4c-35.2,43.6-85.6,69.7-151.3,78.5
		v120.6h-87.3v-120.6c-66.2-9.6-116.8-38.5-152-86.6s-52.7-112.4-52.7-192.8h110.5c0,57.9,11.7,102.4,35.2,133.6
		s56.5,46.8,99.2,46.8c43.5,0,77.8-13,102.7-39.1S-2223.5,1816.1-2223.5,1770.2z"/>
	<path class="st1" d="M-1458.6,2006.2h-511.1v-83.7l260.6-345.4c39.3-53.2,66.7-96.9,81.9-131.1s22.9-70.3,22.9-108.4
		c0-48.6-11.3-88-33.9-118.2c-22.6-30.2-52.3-45.3-89.2-45.3c-46.5,0-82.4,16.1-107.7,48.2s-38,78.4-38,138.8h-111.1
		c0-84.1,23-152.2,69.1-204.1s108.6-77.9,187.8-77.9c72.8,0,130.2,22.3,172,66.9c41.9,44.6,62.8,103.9,62.8,178
		c0,90.4-47.1,197.4-141.3,320.9l-203.4,266.2h378.6V2006.2z"/>
	<path class="st1" d="M-846.3,1616.5c0,134.9-19.7,235.7-59,302.5s-101.1,100.2-185.2,100.2c-81.6,0-142.5-32-182.7-96.1
		s-61.1-160.4-62.8-289V1477c0-133.6,19.8-233.3,59.3-299.1s101.2-98.7,184.9-98.7c82.5,0,143.5,31.2,183,93.6
		c39.6,62.4,60.4,156.9,62.5,283.4V1616.5z M-957.4,1457.1c0-96.8-10.7-168.2-32-214.1s-55.5-68.8-102.3-68.8
		c-45.6,0-79.1,22.5-100.5,67.6c-21.3,45.1-32.4,113.1-33.3,204v188.6c0,96.4,11.1,168.8,33.3,217.2s56.1,72.6,101.7,72.6
		c45.2,0,78.5-22.8,99.8-68.5s32.5-115.5,33.3-209.4V1457.1z"/>
</g>
<g class="st2">
	<path class="st1" d="M1198,5021.8c0-38-10.5-70-31.4-96s-56.9-50.1-108-72.3c-74.9-27.2-129.6-62.7-163.9-106.4
		c-34.3-43.7-51.5-99.3-51.5-166.7c0-68.6,16.6-124.6,49.9-167.9s78.6-69.6,135.9-78.8v-138.1h88.5v138.8
		c58.6,10.5,103.9,40.3,135.9,89.5s48,116.3,48,201.3h-109.9c0-58.1-10.7-104.6-32-139.7s-50.7-52.6-87.9-52.6
		c-37.3,0-66.3,12.7-87,38.2s-31.1,61.3-31.1,107.7c0,42.2,11.2,75.8,33.6,101.1c22.4,25.3,58.9,48.5,109.6,69.8
		c75.8,28.5,130.1,64,162.9,106.5c32.9,42.5,49.3,97.5,49.3,164.9c0,68.7-17.6,124.8-52.8,168.4c-35.2,43.6-85.6,69.7-151.3,78.5
		v120.6h-87.3v-120.6c-66.2-9.6-116.8-38.5-152-86.6S813,5068.7,813,4988.3h110.5c0,57.9,11.7,102.4,35.2,133.6s56.5,46.8,99.2,46.8
		c43.5,0,77.8-13,102.7-39.1S1198,5067.6,1198,5021.8z"/>
	<path class="st1" d="M1782.6,5257.8h-111.8v-774.9l-192.1,85.9v-105l286.3-125h17.6V5257.8z"/>
	<path class="st1" d="M2575.2,4868c0,134.9-19.7,235.7-59,302.5s-101.1,100.2-185.2,100.2c-81.6,0-142.5-32-182.7-96.1
		s-61.1-160.4-62.8-289v-157.1c0-133.6,19.8-233.3,59.3-299.1s101.2-98.7,184.9-98.7c82.5,0,143.5,31.2,183,93.6
		c39.6,62.4,60.4,156.9,62.5,283.4V4868z M2464,4708.7c0-96.8-10.7-168.2-32-214.1s-55.5-68.8-102.3-68.8
		c-45.6,0-79.1,22.5-100.5,67.6c-21.3,45.1-32.4,113.1-33.3,204V4886c0,96.4,11.1,168.8,33.3,217.2s56.1,72.6,101.7,72.6
		c45.2,0,78.5-22.8,99.8-68.5s32.5-115.5,33.3-209.4V4708.7z"/>
</g>
<g id="veinte_1_" class="st3">
	<path class="st4" d="M-2258.2,1570.9c0-38-10.5-70-31.4-96s-56.9-50.1-108-72.3c-74.9-27.2-129.6-62.7-163.9-106.4
		c-34.3-43.7-51.5-99.3-51.5-166.7c0-68.6,16.6-124.6,49.9-167.9s78.6-69.6,135.9-78.8V744.7h88.5v138.8
		c58.6,10.5,103.9,40.3,135.9,89.5s48,116.3,48,201.3h-109.9c0-58.1-10.7-104.6-32-139.7s-50.7-52.6-87.9-52.6
		c-37.3,0-66.3,12.7-87,38.2s-31.1,61.3-31.1,107.7c0,42.2,11.2,75.8,33.6,101.1c22.4,25.3,58.9,48.5,109.6,69.8
		c75.8,28.5,130.1,64,162.9,106.5c32.9,42.5,49.3,97.5,49.3,164.9c0,68.7-17.6,124.8-52.8,168.4c-35.2,43.6-85.6,69.7-151.3,78.5
		v120.6h-87.3v-120.6c-66.2-9.6-116.8-38.5-152-86.6s-52.7-112.4-52.7-192.8h110.5c0,57.9,11.7,102.4,35.2,133.6
		s56.5,46.8,99.2,46.8c43.5,0,77.8-13,102.7-39.1S-2258.2,1616.7-2258.2,1570.9z"/>
	<path class="st4" d="M-1493.3,1806.9h-511.1v-83.7l260.6-345.4c39.3-53.2,66.7-96.9,81.9-131.1s22.9-70.3,22.9-108.4
		c0-48.6-11.3-88-33.9-118.2c-22.6-30.2-52.3-45.3-89.2-45.3c-46.5,0-82.4,16.1-107.7,48.2s-38,78.4-38,138.8h-111.1
		c0-84.1,23-152.2,69.1-204.1s108.6-77.9,187.8-77.9c72.8,0,130.2,22.3,172,66.9c41.9,44.6,62.8,103.9,62.8,178
		c0,90.4-47.1,197.4-141.3,320.9l-203.4,266.2h378.6V1806.9z"/>
	<path class="st4" d="M-881,1417.1c0,134.9-19.7,235.7-59,302.5s-101.1,100.2-185.2,100.2c-81.6,0-142.5-32-182.7-96.1
		s-61.1-160.4-62.8-289v-157.1c0-133.6,19.8-233.3,59.3-299.1s101.2-98.7,184.9-98.7c82.5,0,143.5,31.2,183,93.6
		c39.6,62.4,60.4,156.9,62.5,283.4V1417.1z M-992.1,1257.8c0-96.8-10.7-168.2-32-214.1c-21.3-45.9-55.5-68.8-102.3-68.8
		c-45.6,0-79.1,22.5-100.5,67.6c-21.3,45.1-32.4,113.1-33.3,204V1435c0,96.4,11.1,168.8,33.3,217.2s56.1,72.6,101.7,72.6
		c45.2,0,78.5-22.8,99.8-68.5c21.3-45.7,32.5-115.5,33.3-209.4V1257.8z"/>
</g>
<g id="treinta_1_" class="st3">
	<path class="st4" d="M-2258.2,1570.9c0-38-10.5-70-31.4-96s-56.9-50.1-108-72.3c-74.9-27.2-129.6-62.7-163.9-106.4
		c-34.3-43.7-51.5-99.3-51.5-166.7c0-68.6,16.6-124.6,49.9-167.9s78.6-69.6,135.9-78.8V744.7h88.5v138.8
		c58.6,10.5,103.9,40.3,135.9,89.5s48,116.3,48,201.3h-109.9c0-58.1-10.7-104.6-32-139.7s-50.7-52.6-87.9-52.6
		c-37.3,0-66.3,12.7-87,38.2s-31.1,61.3-31.1,107.7c0,42.2,11.2,75.8,33.6,101.1c22.4,25.3,58.9,48.5,109.6,69.8
		c75.8,28.5,130.1,64,162.9,106.5c32.9,42.5,49.3,97.5,49.3,164.9c0,68.7-17.6,124.8-52.8,168.4c-35.2,43.6-85.6,69.7-151.3,78.5
		v120.6h-87.3v-120.6c-66.2-9.6-116.8-38.5-152-86.6s-52.7-112.4-52.7-192.8h110.5c0,57.9,11.7,102.4,35.2,133.6
		s56.5,46.8,99.2,46.8c43.5,0,77.8-13,102.7-39.1S-2258.2,1616.7-2258.2,1570.9z"/>
	<path class="st4" d="M-1862.5,1292.9h71c45.6,0,80.8-14,105.5-42.1c24.7-28.1,37-66.4,37-115c0-107.3-41.5-160.9-124.3-160.9
		c-39.8,0-71,14.5-93.6,43.3c-22.6,28.9-33.9,66.8-33.9,113.7h-110.5c0-73.3,22.3-133.6,66.9-180.9c44.6-47.4,101.6-71,171.1-71
		c72,0,129.1,22.5,171.4,67.5s63.4,108.7,63.4,191.2c0,42.3-11,81.7-33,118.3c-22,36.6-50.5,63.5-85.7,80.7
		c86.2,31.9,129.3,103.3,129.3,214.4c0,81.8-22.7,146.8-68.1,195.3c-45.4,48.4-104.8,72.6-178,72.6c-72.4,0-130.9-22.9-175.5-68.8
		c-44.6-45.9-66.9-107.6-66.9-185h111.2c0,48.6,11.7,87.2,35.2,115.9s55.5,43,96.1,43c41.4,0,74.4-14,98.9-42.1
		c24.5-28.1,36.7-70.8,36.7-128.3c0-111.1-52.5-166.6-157.6-166.6h-66.6V1292.9z"/>
	<path class="st4" d="M-881,1417.1c0,134.9-19.7,235.7-59,302.5s-101.1,100.2-185.2,100.2c-81.6,0-142.5-32-182.7-96.1
		s-61.1-160.4-62.8-289v-157.1c0-133.6,19.8-233.3,59.3-299.1s101.2-98.7,184.9-98.7c82.5,0,143.5,31.2,183,93.6
		c39.6,62.4,60.4,156.9,62.5,283.4V1417.1z M-992.1,1257.8c0-96.8-10.7-168.2-32-214.1c-21.3-45.9-55.5-68.8-102.3-68.8
		c-45.6,0-79.1,22.5-100.5,67.6c-21.3,45.1-32.4,113.1-33.3,204V1435c0,96.4,11.1,168.8,33.3,217.2s56.1,72.6,101.7,72.6
		c45.2,0,78.5-22.8,99.8-68.5c21.3-45.7,32.5-115.5,33.3-209.4V1257.8z"/>
</g>
<text transform="matrix(1 0 0 1 -2701.3694 5124.6182)" style="display:none;fill:#FFFFFF;enable-background:new    ; font-family:'RobotoCondensed-Regular'; font-size:1286.224px;">$15</text>
<g class="st2">
	<path class="st1" d="M-2246.7,4888.6c0-38-10.5-70-31.4-96s-56.9-50.1-108-72.3c-74.9-27.2-129.6-62.7-163.9-106.4
		c-34.3-43.7-51.5-99.3-51.5-166.7c0-68.6,16.6-124.6,49.9-167.9s78.6-69.6,135.9-78.8v-138.1h88.5v138.8
		c58.6,10.5,103.9,40.3,135.9,89.5s48,116.3,48,201.3h-109.9c0-58.1-10.7-104.6-32-139.7s-50.7-52.6-87.9-52.6
		c-37.3,0-66.3,12.7-87,38.2s-31.1,61.3-31.1,107.7c0,42.2,11.2,75.8,33.6,101.1c22.4,25.3,58.9,48.5,109.6,69.8
		c75.8,28.5,130.1,64,162.9,106.5c32.9,42.5,49.3,97.5,49.3,164.9c0,68.7-17.6,124.8-52.8,168.4c-35.2,43.6-85.6,69.7-151.3,78.5
		v120.6h-87.3v-120.6c-66.2-9.6-116.8-38.5-152-86.6s-52.7-112.4-52.7-192.8h110.5c0,57.9,11.7,102.4,35.2,133.6
		s56.5,46.8,99.2,46.8c43.5,0,77.8-13,102.7-39.1S-2246.7,4934.5-2246.7,4888.6z"/>
	<path class="st1" d="M-1662,5124.6h-111.8v-774.9l-192.1,85.9v-105l286.3-125h17.6V5124.6z"/>
	<path class="st1" d="M-1312.8,4666.4l39.6-455.8h397.5v107h-303.9l-21.3,249.5c37.7-26.3,78.3-39.5,121.8-39.5
		c71.2,0,127,27.6,167.7,82.9c40.6,55.3,60.9,129.6,60.9,223c0,94.7-22.1,169-66.3,223s-104.8,81-181.8,81
		c-68.7,0-124.5-22.4-167.7-67.2c-43.1-44.8-67.8-106.8-74.1-185.9h104.2c6.3,52.3,21.2,91.7,44.9,118.2
		c23.7,26.6,54.5,39.8,92.6,39.8c43.1,0,76.8-18.7,101.1-56.2s36.4-88.1,36.4-151.8c0-59.9-13.1-108.7-39.3-146.4
		c-26.2-37.7-61.4-56.6-105.8-56.6c-36.8,0-66.3,9.7-88.5,29l-29.5,29.6L-1312.8,4666.4z"/>
</g>
</svg>
